Khula-ExBold939.ufo
<glyph name="semicolon.deva" format="1">
  <advance width="679"/>
  <unicode hex="003B"/>
  <outline>
    <contour>
      <point x="517" y="269" type="line"/>
      <point x="530" y="248" type="line"/>
      <point x="471" y="19"/>
      <point x="418" y="-149"/>
      <point x="371" y="-257" type="curve"/>
      <point x="120" y="-257" type="line"/>
      <point x="137" y="-174"/>
      <point x="155" y="-81"/>
      <point x="172" y="22" type="curve" smooth="yes"/>
      <point x="190" y="125"/>
      <point x="202" y="207"/>
      <point x="209" y="269" type="curve"/>
    </contour>
    <contour>
      <point x="152" y="860" type="curve" smooth="yes"/>
      <point x="152" y="969"/>
      <point x="217" y="1032"/>
      <point x="342" y="1032" type="curve" smooth="yes"/>
      <point x="462" y="1032"/>
      <point x="528" y="968"/>
      <point x="528" y="860" type="curve" smooth="yes"/>
      <point x="528" y="752"/>
      <point x="461" y="688"/>
      <point x="342" y="688" type="curve" smooth="yes"/>
      <point x="219" y="688"/>
      <point x="152" y="751"/>
    </contour>
  </outline>
</glyph>
<glyph name="invertedcandrabindu" format="1">
  <advance width="0"/>
  <unicode hex="0900"/>
  <outline>
    <component base="candrabindudeva" xScale="-1.0" yScale="-1.0" xOffset="-903" yOffset="3105"/>
    <contour>
      <point x="-539" y="1293" type="move" name="_top"/>
    </contour>
  </outline>
</glyph>
<glyph name="adeva" format="1">
  <advance width="1713"/>
  <unicode hex="0905"/>
  <outline>
    <contour>
      <point x="304" y="564" type="line"/>
      <point x="248" y="821" type="line"/>
      <point x="261" y="821" type="line"/>
      <point x="537" y="841"/>
      <point x="579" y="892"/>
      <point x="579" y="970" type="curve" smooth="yes"/>
      <point x="579" y="1021"/>
      <point x="539" y="1049"/>
      <point x="462" y="1049" type="curve" smooth="yes"/>
      <point x="376" y="1049"/>
      <point x="296" y="1024"/>
      <point x="184" y="963" type="curve"/>
      <point x="107" y="1224" type="line"/>
      <point x="212" y="1272"/>
      <point x="320" y="1302"/>
      <point x="480" y="1302" type="curve" smooth="yes"/>
      <point x="735" y="1302"/>
      <point x="887" y="1155"/>
      <point x="887" y="943" type="curve" smooth="yes"/>
      <point x="887" y="721"/>
      <point x="699" y="593"/>
      <point x="328" y="566" type="curve" smooth="yes"/>
    </contour>
    <contour>
      <point x="691" y="783" type="line"/>
      <point x="830" y="720"/>
      <point x="946" y="610"/>
      <point x="946" y="424" type="curve" smooth="yes"/>
      <point x="946" y="234"/>
      <point x="789" y="79"/>
      <point x="537" y="79" type="curve" smooth="yes"/>
      <point x="356" y="79"/>
      <point x="211" y="136"/>
      <point x="64" y="231" type="curve"/>
      <point x="129" y="480" type="line"/>
      <point x="251" y="395"/>
      <point x="357" y="355"/>
      <point x="462" y="355" type="curve" smooth="yes"/>
      <point x="569" y="355"/>
      <point x="625" y="409"/>
      <point x="625" y="491" type="curve" smooth="yes"/>
      <point x="625" y="554"/>
      <point x="578" y="600"/>
      <point x="498" y="630" type="curve"/>
    </contour>
    <contour>
      <point x="722" y="699" type="line"/>
      <point x="786" y="676"/>
      <point x="853" y="664"/>
      <point x="938" y="664" type="curve" smooth="yes"/>
      <point x="1031" y="664"/>
      <point x="1156" y="695"/>
      <point x="1221" y="756" type="curve"/>
      <point x="1221" y="435" type="line"/>
      <point x="1191" y="428"/>
      <point x="1104" y="416"/>
      <point x="1047" y="416" type="curve" smooth="yes"/>
      <point x="951" y="416"/>
      <point x="879" y="424"/>
      <point x="777" y="437" type="curve"/>
    </contour>
    <contour>
      <point x="1176" y="1104" type="line"/>
      <point x="1525" y="1104" type="line"/>
      <point x="1525" y="0" type="line"/>
      <point x="1176" y="0" type="line"/>
    </contour>
    <contour>
      <point x="1743" y="1065" type="line"/>
      <point x="1009" y="1065" type="line"/>
      <point x="1009" y="1293" type="line"/>
      <point x="1743" y="1293" type="line"/>
    </contour>
  </outline>
</glyph>
<glyph name="uudeva" format="1">
  <advance width="1648"/>
  <unicode hex="090A"/>
  <outline>
    <contour>
      <point x="933" y="312" type="curve"/>
      <point x="755" y="639" type="line"/>
      <point x="861" y="700"/>
      <point x="987" y="745"/>
      <point x="1118" y="745" type="curve" smooth="yes"/>
      <point x="1402" y="745"/>
      <point x="1579" y="565"/>
      <point x="1579" y="343" type="curve" smooth="yes"/>
      <point x="1579" y="205"/>
      <point x="1527" y="77"/>
      <point x="1456" y="-15" type="curve"/>
      <point x="1154" y="99" type="line"/>
      <point x="1224" y="196"/>
      <point x="1275" y="288"/>
      <point x="1275" y="375" type="curve" smooth="yes"/>
      <point x="1275" y="436"/>
      <point x="1239" y="475"/>
      <point x="1170" y="475" type="curve" smooth="yes"/>
      <point x="1090" y="475"/>
      <point x="1004" y="416"/>
    </contour>
    <contour>
      <point x="1146" y="1065" type="line"/>
      <point x="1136" y="1293" type="line"/>
      <point x="1678" y="1293" type="line"/>
      <point x="1678" y="1065" type="line"/>
    </contour>
    <component base="udeva"/>
    <contour>
      <point x="499" y="1293" type="move" name="top"/>
    </contour>
  </outline>
</glyph>
<glyph name="edeva" format="1">
  <advance width="1332"/>
  <unicode hex="090F"/>
  <outline>
    <contour>
      <point x="1162" y="1106" type="line"/>
      <point x="1162" y="735" type="line"/>
      <point x="1162" y="598"/>
      <point x="1125" y="509"/>
      <point x="1034" y="412" type="curve"/>
      <point x="762" y="546" type="line"/>
      <point x="799" y="630"/>
      <point x="813" y="694"/>
      <point x="813" y="809" type="curve" smooth="yes"/>
      <point x="813" y="1106" type="line"/>
    </contour>
    <contour>
      <point x="-30" y="1065" type="line"/>
      <point x="-30" y="1293" type="line"/>
      <point x="1362" y="1293" type="line"/>
      <point x="1362" y="1065" type="line"/>
    </contour>
    <contour>
      <point x="136" y="1106" type="line"/>
      <point x="483" y="1106" type="line"/>
      <point x="483" y="689" type="line"/>
      <point x="483" y="577"/>
      <point x="507" y="542"/>
      <point x="609" y="475" type="curve" smooth="yes"/>
      <point x="994" y="221" type="line"/>
      <point x="1123" y="136"/>
      <point x="1166" y="63"/>
      <point x="1166" y="-27" type="curve" smooth="yes"/>
      <point x="1166" y="-91"/>
      <point x="1139" y="-157"/>
      <point x="1108" y="-211" type="curve"/>
      <point x="745" y="-133" type="line"/>
      <point x="763" y="-98"/>
      <point x="778" y="-70"/>
      <point x="778" y="-37" type="curve" smooth="yes"/>
      <point x="778" y="-4"/>
      <point x="764" y="25"/>
      <point x="713" y="60" type="curve" smooth="yes"/>
      <point x="322" y="323" type="line"/>
      <point x="174" y="422"/>
      <point x="136" y="512"/>
      <point x="136" y="686" type="curve" smooth="yes"/>
    </contour>
    <contour>
      <point x="-36" y="8" type="move" name="x44"/>
    </contour>
    <contour>
      <point x="861" y="1282" type="move" name="mark0"/>
    </contour>
  </outline>
</glyph>
<glyph name="kadeva" format="1">
  <advance width="1732"/>
  <unicode hex="0915"/>
  <outline>
    <contour>
      <point x="961" y="353" type="curve"/>
      <point x="953" y="825" type="line"/>
      <point x="996" y="833"/>
      <point x="1073" y="843"/>
      <point x="1150" y="843" type="curve" smooth="yes"/>
      <point x="1424" y="843"/>
      <point x="1622" y="684"/>
      <point x="1622" y="445" type="curve" smooth="yes"/>
      <point x="1622" y="325"/>
      <point x="1574" y="205"/>
      <point x="1499" y="108" type="curve"/>
      <point x="1202" y="211" type="line"/>
      <point x="1267" y="305"/>
      <point x="1304" y="386"/>
      <point x="1304" y="466" type="curve" smooth="yes"/>
      <point x="1304" y="525"/>
      <point x="1266" y="564"/>
      <point x="1200" y="564" type="curve" smooth="yes"/>
      <point x="1122" y="564"/>
      <point x="1042" y="496"/>
    </contour>
    <contour>
      <point x="-30" y="1065" type="line"/>
      <point x="-30" y="1293" type="line"/>
      <point x="1762" y="1293" type="line"/>
      <point x="1762" y="1065" type="line"/>
    </contour>
    <contour>
      <point x="705" y="613" type="curve"/>
      <point x="705" y="248" type="line"/>
      <point x="638" y="213"/>
      <point x="574" y="194"/>
      <point x="487" y="194" type="curve" smooth="yes"/>
      <point x="230" y="194"/>
      <point x="52" y="384"/>
      <point x="52" y="596" type="curve" smooth="yes"/>
      <point x="52" y="782"/>
      <point x="178" y="924"/>
      <point x="410" y="928" type="curve" smooth="yes"/>
      <point x="539" y="930"/>
      <point x="629" y="907"/>
      <point x="724" y="863" type="curve"/>
      <point x="724" y="626" type="line"/>
      <point x="640" y="667"/>
      <point x="587" y="680"/>
      <point x="494" y="680" type="curve" smooth="yes"/>
      <point x="398" y="680"/>
      <point x="343" y="626"/>
      <point x="343" y="556" type="curve" smooth="yes"/>
      <point x="343" y="488"/>
      <point x="389" y="451"/>
      <point x="466" y="451" type="curve" smooth="yes"/>
      <point x="544" y="451"/>
      <point x="639" y="503"/>
    </contour>
    <contour>
      <point x="683" y="1104" type="line"/>
      <point x="1031" y="1104" type="line"/>
      <point x="1031" y="0" type="line"/>
      <point x="683" y="0" type="line"/>
    </contour>
    <contour>
      <point x="683" y="0" type="move" name="btm"/>
    </contour>
    <contour>
      <point x="683" y="1293" type="move" name="top"/>
    </contour>
  </outline>
</glyph>
<glyph name="khadeva" format="1">
  <advance width="1861"/>
  <unicode hex="0916"/>
  <outline>
    <contour>
      <point x="1366" y="713" type="curve"/>
      <point x="1366" y="350" type="line"/>
      <point x="1307" y="315"/>
      <point x="1239" y="299"/>
      <point x="1146" y="299" type="curve" smooth="yes"/>
      <point x="907" y="299"/>
      <point x="734" y="481"/>
      <point x="734" y="669" type="curve" smooth="yes"/>
      <point x="734" y="833"/>
      <point x="843" y="966"/>
      <point x="1082" y="966" type="curve" smooth="yes"/>
      <point x="1207" y="966"/>
      <point x="1302" y="940"/>
      <point x="1369" y="901" type="curve"/>
      <point x="1369" y="690" type="line"/>
      <point x="1300" y="725"/>
      <point x="1223" y="741"/>
      <point x="1146" y="741" type="curve" smooth="yes"/>
      <point x="1061" y="741"/>
      <point x="1011" y="687"/>
      <point x="1011" y="635" type="curve" smooth="yes"/>
      <point x="1011" y="580"/>
      <point x="1051" y="539"/>
      <point x="1112" y="539" type="curve" smooth="yes"/>
      <point x="1210" y="539"/>
      <point x="1304" y="611"/>
    </contour>
    <contour>
      <point x="256" y="723" type="line"/>
      <point x="392" y="762"/>
      <point x="424" y="836"/>
      <point x="424" y="950" type="curve" smooth="yes"/>
      <point x="424" y="1151" type="line"/>
      <point x="773" y="1151" type="line"/>
      <point x="773" y="933" type="line"/>
      <point x="773" y="723"/>
      <point x="721" y="539"/>
      <point x="461" y="415" type="curve"/>
    </contour>
    <contour>
      <point x="-30" y="1065" type="line"/>
      <point x="-30" y="1293" type="line"/>
      <point x="1891" y="1293" type="line"/>
      <point x="1891" y="1065" type="line"/>
    </contour>
    <contour>
      <point x="373" y="631" type="line"/>
      <point x="416" y="558"/>
      <point x="473" y="486"/>
      <point x="523" y="436" type="curve" smooth="yes"/>
      <point x="697" y="262"/>
      <point x="882" y="207"/>
      <point x="1077" y="207" type="curve" smooth="yes"/>
      <point x="1256" y="207"/>
      <point x="1387" y="250"/>
      <point x="1527" y="339" type="curve"/>
      <point x="1637" y="100" type="line"/>
      <point x="1504" y="27"/>
      <point x="1334" y="-25"/>
      <point x="1047" y="-25" type="curve" smooth="yes"/>
      <point x="779" y="-25"/>
      <point x="478" y="88"/>
      <point x="295" y="271" type="curve" smooth="yes"/>
      <point x="182" y="384"/>
      <point x="103" y="494"/>
      <point x="62" y="582" type="curve" smooth="yes"/>
      <point x="39" y="629"/>
      <point x="28" y="671"/>
      <point x="28" y="705" type="curve" smooth="yes"/>
      <point x="28" y="789"/>
      <point x="95" y="856"/>
      <point x="181" y="856" type="curve" smooth="yes"/>
      <point x="266" y="856"/>
      <point x="313" y="820"/>
      <point x="381" y="733" type="curve" smooth="yes"/>
      <point x="427" y="673" type="line"/>
    </contour>
    <contour>
      <point x="1324" y="1104" type="line"/>
      <point x="1673" y="1104" type="line"/>
      <point x="1673" y="0" type="line"/>
      <point x="1324" y="0" type="line"/>
    </contour>
    <contour>
      <point x="1324" y="1293" type="move" name="top"/>
    </contour>
  </outline>
</glyph>
<glyph name="cadeva" format="1">
  <advance width="1500"/>
  <unicode hex="091A"/>
  <outline>
    <contour>
      <point x="62" y="634" type="line"/>
      <point x="62" y="908" type="line"/>
      <point x="832" y="908" type="line"/>
      <point x="832" y="634" type="line"/>
    </contour>
    <contour>
      <point x="1008" y="591" type="curve"/>
      <point x="1008" y="183" type="line"/>
      <point x="949" y="157"/>
      <point x="865" y="139"/>
      <point x="760" y="139" type="curve" smooth="yes"/>
      <point x="478" y="139"/>
      <point x="297" y="294"/>
      <point x="297" y="527" type="curve" smooth="yes"/>
      <point x="297" y="721"/>
      <point x="426" y="878"/>
      <point x="750" y="878" type="curve"/>
      <point x="781" y="637" type="line"/>
      <point x="666" y="638"/>
      <point x="609" y="564"/>
      <point x="609" y="499" type="curve" smooth="yes"/>
      <point x="609" y="444"/>
      <point x="649" y="405"/>
      <point x="730" y="405" type="curve" smooth="yes"/>
      <point x="841" y="405"/>
      <point x="956" y="472"/>
    </contour>
    <contour>
      <point x="-30" y="1065" type="line"/>
      <point x="-30" y="1293" type="line"/>
      <point x="1530" y="1293" type="line"/>
      <point x="1530" y="1065" type="line"/>
    </contour>
    <contour>
      <point x="963" y="1104" type="line"/>
      <point x="1312" y="1104" type="line"/>
      <point x="1312" y="0" type="line"/>
      <point x="963" y="0" type="line"/>
    </contour>
    <contour>
      <point x="963" y="1293" type="move" name="top"/>
    </contour>
  </outline>
</glyph>
<glyph name="jadeva" format="1">
  <advance width="1686"/>
  <unicode hex="091C"/>
  <outline>
    <contour>
      <point x="-30" y="1065" type="line"/>
      <point x="-30" y="1293" type="line"/>
      <point x="1716" y="1293" type="line"/>
      <point x="1716" y="1065" type="line"/>
    </contour>
    <contour>
      <point x="775" y="624" type="line"/>
      <point x="809" y="709" type="line"/>
      <point x="917" y="640"/>
      <point x="989" y="533"/>
      <point x="989" y="369" type="curve" smooth="yes"/>
      <point x="989" y="188"/>
      <point x="851" y="42"/>
      <point x="629" y="42" type="curve" smooth="yes"/>
      <point x="391" y="42"/>
      <point x="178" y="180"/>
      <point x="8" y="417" type="curve"/>
      <point x="166" y="648" type="line"/>
      <point x="353" y="405"/>
      <point x="461" y="344"/>
      <point x="552" y="344" type="curve" smooth="yes"/>
      <point x="629" y="344"/>
      <point x="677" y="391"/>
      <point x="677" y="461" type="curve" smooth="yes"/>
      <point x="677" y="548"/>
      <point x="607" y="629"/>
      <point x="441" y="668" type="curve"/>
      <point x="441" y="908" type="line"/>
      <point x="1200" y="908" type="line"/>
      <point x="1200" y="624" type="line"/>
    </contour>
    <contour>
      <point x="1150" y="1104" type="line"/>
      <point x="1498" y="1104" type="line"/>
      <point x="1498" y="0" type="line"/>
      <point x="1150" y="0" type="line"/>
    </contour>
    <contour>
      <point x="1150" y="1293" type="move" name="top"/>
    </contour>
  </outline>
</glyph>
<glyph name="jhadeva" format="1">
  <advance width="1789"/>
  <unicode hex="091D"/>
  <outline>
    <contour>
      <point x="1273" y="295" type="line"/>
      <point x="1254" y="289"/>
      <point x="1203" y="285"/>
      <point x="1169" y="285" type="curve" smooth="yes"/>
      <point x="1052" y="285"/>
      <point x="971" y="302"/>
      <point x="911" y="319" type="curve"/>
      <point x="904" y="561" type="line"/>
      <point x="961" y="546"/>
      <point x="1009" y="537"/>
      <point x="1055" y="537" type="curve" smooth="yes"/>
      <point x="1118" y="537"/>
      <point x="1215" y="560"/>
      <point x="1273" y="619" type="curve"/>
    </contour>
    <contour>
      <point x="1252" y="1104" type="line"/>
      <point x="1601" y="1104" type="line"/>
      <point x="1601" y="0" type="line"/>
      <point x="1252" y="0" type="line"/>
    </contour>
    <contour>
      <point x="1819" y="1065" type="line"/>
      <point x="1085" y="1065" type="line"/>
      <point x="1085" y="1293" type="line"/>
      <point x="1819" y="1293" type="line"/>
    </contour>
    <component base="ideva"/>
    <contour>
      <point x="1252" y="1293" type="move" name="top"/>
    </contour>
  </outline>
</glyph>
<glyph name="ttadeva" format="1">
  <advance width="1221"/>
  <unicode hex="091F"/>
  <outline>
    <contour>
      <point x="621" y="1102" type="line"/>
      <point x="970" y="1102" type="line"/>
      <point x="970" y="654" type="line"/>
      <point x="667" y="654" type="line"/>
      <point x="491" y="654"/>
      <point x="411" y="567"/>
      <point x="411" y="460" type="curve" smooth="yes"/>
      <point x="411" y="351"/>
      <point x="499" y="273"/>
      <point x="664" y="273" type="curve" smooth="yes"/>
      <point x="777" y="273"/>
      <point x="872" y="293"/>
      <point x="1020" y="348" type="curve"/>
      <point x="1085" y="65" type="line"/>
      <point x="953" y="24"/>
      <point x="856" y="8"/>
      <point x="708" y="8" type="curve" smooth="yes"/>
      <point x="311" y="8"/>
      <point x="68" y="232"/>
      <point x="68" y="502" type="curve" smooth="yes"/>
      <point x="68" y="758"/>
      <point x="252" y="908"/>
      <point x="568" y="908" type="curve" smooth="yes"/>
      <point x="661" y="908" type="line"/>
      <point x="621" y="865" type="line"/>
    </contour>
    <contour>
      <point x="1251" y="1065" type="line"/>
      <point x="-30" y="1065" type="line"/>
      <point x="-30" y="1293" type="line"/>
      <point x="1251" y="1293" type="line"/>
    </contour>
    <contour>
      <point x="529" y="25" type="move" name="btm"/>
    </contour>
    <contour>
      <point x="621" y="1293" type="move" name="top"/>
    </contour>
  </outline>
</glyph>
<glyph name="nnadeva" format="1">
  <advance width="1828"/>
  <unicode hex="0923"/>
  <outline>
    <contour>
      <point x="711" y="1086" type="line"/>
      <point x="1060" y="1086" type="line"/>
      <point x="1060" y="730" type="line"/>
      <point x="1060" y="451"/>
      <point x="916" y="265"/>
      <point x="602" y="265" type="curve" smooth="yes"/>
      <point x="279" y="265"/>
      <point x="112" y="467"/>
      <point x="112" y="728" type="curve" smooth="yes"/>
      <point x="112" y="1086" type="line"/>
      <point x="461" y="1086" type="line"/>
      <point x="461" y="661" type="line"/>
      <point x="461" y="572"/>
      <point x="506" y="516"/>
      <point x="582" y="516" type="curve" smooth="yes"/>
      <point x="662" y="516"/>
      <point x="711" y="573"/>
      <point x="711" y="695" type="curve" smooth="yes"/>
    </contour>
    <contour>
      <point x="-30" y="1065" type="line"/>
      <point x="-30" y="1293" type="line"/>
      <point x="1858" y="1293" type="line"/>
      <point x="1858" y="1065" type="line"/>
    </contour>
    <contour>
      <point x="1291" y="1104" type="line"/>
      <point x="1640" y="1104" type="line"/>
      <point x="1640" y="0" type="line"/>
      <point x="1291" y="0" type="line"/>
    </contour>
    <contour>
      <point x="1263" y="1293" type="move" name="top"/>
    </contour>
  </outline>
</glyph>
<glyph name="thadeva" format="1">
  <advance width="1504"/>
  <unicode hex="0925"/>
  <outline>
    <contour>
      <point x="801" y="926" type="curve" smooth="yes"/>
      <point x="801" y="712"/>
      <point x="628" y="577"/>
      <point x="416" y="516" type="curve"/>
      <point x="417" y="620" type="line"/>
      <point x="491" y="534"/>
      <point x="570" y="490"/>
      <point x="678" y="490" type="curve" smooth="yes"/>
      <point x="831" y="490"/>
      <point x="962" y="564"/>
      <point x="1023" y="726" type="curve"/>
      <point x="1023" y="247" type="line"/>
      <point x="955" y="222"/>
      <point x="892" y="212"/>
      <point x="784" y="212" type="curve" smooth="yes"/>
      <point x="507" y="212"/>
      <point x="231" y="379"/>
      <point x="95" y="670" type="curve"/>
      <point x="95" y="676" type="line"/>
      <point x="315" y="714"/>
      <point x="504" y="828"/>
      <point x="504" y="967" type="curve" smooth="yes"/>
      <point x="504" y="1056"/>
      <point x="449" y="1105"/>
      <point x="392" y="1105" type="curve" smooth="yes"/>
      <point x="343" y="1105"/>
      <point x="315" y="1071"/>
      <point x="315" y="1023" type="curve" smooth="yes"/>
      <point x="315" y="963"/>
      <point x="365" y="903"/>
      <point x="490" y="856" type="curve"/>
      <point x="391" y="713" type="line"/>
      <point x="115" y="795"/>
      <point x="12" y="928"/>
      <point x="12" y="1082" type="curve" smooth="yes"/>
      <point x="12" y="1220"/>
      <point x="114" y="1341"/>
      <point x="323" y="1341" type="curve" smooth="yes"/>
      <point x="629" y="1341"/>
      <point x="801" y="1137"/>
    </contour>
    <contour>
      <point x="967" y="1104" type="line"/>
      <point x="1316" y="1104" type="line"/>
      <point x="1316" y="0" type="line"/>
      <point x="967" y="0" type="line"/>
    </contour>
    <contour>
      <point x="1534" y="1065" type="line"/>
      <point x="887" y="1065" type="line"/>
      <point x="887" y="1293" type="line"/>
      <point x="1534" y="1293" type="line"/>
    </contour>
    <contour>
      <point x="967" y="1293" type="move" name="top"/>
    </contour>
  </outline>
</glyph>
<glyph name="dhadeva" format="1">
  <advance width="1486"/>
  <unicode hex="0927"/>
  <outline>
    <contour>
      <point x="801" y="637" type="line"/>
      <point x="790" y="636" type="line"/>
      <point x="628" y="623"/>
      <point x="571" y="561"/>
      <point x="571" y="502" type="curve" smooth="yes"/>
      <point x="571" y="451"/>
      <point x="620" y="412"/>
      <point x="691" y="414" type="curve" smooth="yes"/>
      <point x="834" y="417"/>
      <point x="977" y="533"/>
      <point x="1023" y="662" type="curve"/>
      <point x="1023" y="195" type="line"/>
      <point x="938" y="156"/>
      <point x="842" y="134"/>
      <point x="724" y="134" type="curve" smooth="yes"/>
      <point x="430" y="134"/>
      <point x="256" y="324"/>
      <point x="256" y="540" type="curve" smooth="yes"/>
      <point x="256" y="715"/>
      <point x="381" y="910"/>
      <point x="707" y="910" type="curve" smooth="yes"/>
      <point x="714" y="910" type="line"/>
    </contour>
    <contour>
      <point x="332" y="680" type="line"/>
      <point x="116" y="742"/>
      <point x="-4" y="877"/>
      <point x="-4" y="1048" type="curve" smooth="yes"/>
      <point x="-4" y="1207"/>
      <point x="134" y="1341"/>
      <point x="397" y="1341" type="curve" smooth="yes"/>
      <point x="498" y="1341"/>
      <point x="564" y="1331"/>
      <point x="624" y="1315" type="curve"/>
      <point x="605" y="1107" type="line"/>
      <point x="561" y="1115"/>
      <point x="534" y="1119"/>
      <point x="485" y="1119" type="curve" smooth="yes"/>
      <point x="400" y="1119"/>
      <point x="346" y="1067"/>
      <point x="346" y="1006" type="curve" smooth="yes"/>
      <point x="346" y="930"/>
      <point x="418" y="857"/>
      <point x="575" y="856" type="curve"/>
    </contour>
    <contour>
      <point x="950" y="1103" type="line"/>
      <point x="1298" y="1103" type="line"/>
      <point x="1298" y="0" type="line"/>
      <point x="950" y="0" type="line"/>
    </contour>
    <contour>
      <point x="1516" y="1065" type="line"/>
      <point x="875" y="1065" type="line"/>
      <point x="875" y="1293" type="line"/>
      <point x="1516" y="1293" type="line"/>
    </contour>
    <contour>
      <point x="950" y="1293" type="move" name="top"/>
    </contour>
  </outline>
</glyph>
<glyph name="ssadeva" format="1">
  <advance width="1307"/>
  <unicode hex="0937"/>
  <outline>
    <contour>
      <point x="882" y="605" type="line"/>
      <point x="757" y="513" type="line"/>
      <point x="310" y="1054" type="line"/>
      <point x="435" y="1146" type="line"/>
    </contour>
    <contour>
      <point x="1336" y="1065" type="line"/>
      <point x="-30" y="1065" type="line"/>
      <point x="-30" y="1293" type="line"/>
      <point x="1336" y="1293" type="line"/>
    </contour>
    <contour>
      <point x="453" y="1171" type="line"/>
      <point x="453" y="688" type="line"/>
      <point x="453" y="601"/>
      <point x="501" y="549"/>
      <point x="575" y="549" type="curve" smooth="yes"/>
      <point x="661" y="549"/>
      <point x="733" y="579"/>
      <point x="795" y="659" type="curve"/>
      <point x="795" y="294" type="line"/>
      <point x="747" y="282"/>
      <point x="683" y="273"/>
      <point x="613" y="273" type="curve" smooth="yes"/>
      <point x="313" y="273"/>
      <point x="113" y="453"/>
      <point x="113" y="756" type="curve" smooth="yes"/>
      <point x="113" y="1171" type="line"/>
    </contour>
    <contour>
      <point x="769" y="1104" type="line"/>
      <point x="1118" y="1104" type="line"/>
      <point x="1118" y="0" type="line"/>
      <point x="769" y="0" type="line"/>
    </contour>
    <contour>
      <point x="769" y="1293" type="move" name="top"/>
    </contour>
  </outline>
</glyph>
<glyph name="hadeva" format="1">
  <advance width="1256"/>
  <unicode hex="0939"/>
  <outline>
    <contour>
      <point x="711" y="1077" type="line"/>
      <point x="1059" y="1077" type="line"/>
      <point x="1059" y="707" type="line"/>
      <point x="521" y="707" type="line"/>
      <point x="425" y="707"/>
      <point x="384" y="667"/>
      <point x="384" y="616" type="curve" smooth="yes"/>
      <point x="384" y="563"/>
      <point x="430" y="531"/>
      <point x="526" y="509" type="curve"/>
      <point x="295" y="340" type="line"/>
      <point x="127" y="441"/>
      <point x="48" y="553"/>
      <point x="48" y="687" type="curve" smooth="yes"/>
      <point x="48" y="824"/>
      <point x="158" y="935"/>
      <point x="380" y="935" type="curve" smooth="yes"/>
      <point x="750" y="935" type="line"/>
      <point x="711" y="883" type="line"/>
    </contour>
    <contour>
      <point x="668" y="572" type="curve" smooth="yes"/>
      <point x="1015" y="572"/>
      <point x="1168" y="404"/>
      <point x="1168" y="227" type="curve" smooth="yes"/>
      <point x="1168" y="147"/>
      <point x="1150" y="89"/>
      <point x="1115" y="19" type="curve"/>
      <point x="834" y="67" type="line"/>
      <point x="857" y="114"/>
      <point x="868" y="148"/>
      <point x="868" y="198" type="curve" smooth="yes"/>
      <point x="868" y="262"/>
      <point x="817" y="319"/>
      <point x="693" y="319" type="curve" smooth="yes"/>
      <point x="567" y="319"/>
      <point x="488" y="230"/>
      <point x="488" y="140" type="curve" smooth="yes"/>
      <point x="488" y="13"/>
      <point x="589" y="-76"/>
      <point x="1053" y="-134" type="curve"/>
      <point x="963" y="-362" type="line"/>
      <point x="403" y="-296"/>
      <point x="162" y="-104"/>
      <point x="162" y="180" type="curve" smooth="yes"/>
      <point x="162" y="392"/>
      <point x="332" y="572"/>
    </contour>
    <contour>
      <point x="1286" y="1065" type="line"/>
      <point x="-30" y="1065" type="line"/>
      <point x="-30" y="1293" type="line"/>
      <point x="1286" y="1293" type="line"/>
    </contour>
    <contour>
      <point x="711" y="1293" type="move" name="top"/>
    </contour>
  </outline>
</glyph>
<glyph name="oevowelsigndevaKSH" format="1">
  <advance width="0"/>
  <unicode hex="093A"/>
  <outline>
    <component base="udattadeva" yOffset="-267"/>
    <contour>
      <point x="-539" y="1293" type="move" name="_top"/>
    </contour>
  </outline>
</glyph>
<glyph name="viramadeva" format="1">
  <advance width="-1"/>
  <unicode hex="094D"/>
  <outline>
    <contour>
      <point x="-488" y="-50" type="line"/>
      <point x="126" y="-312" type="line"/>
      <point x="26" y="-555" type="line"/>
      <point x="-590" y="-290" type="line"/>
    </contour>
    <contour>
      <point x="-539" y="0" type="move" name="_btm"/>
    </contour>
  </outline>
</glyph>
<glyph name="awvowelsigndevaKSH" format="1">
  <advance width="676"/>
  <unicode hex="094F"/>
  <outline>
    <contour>
      <point x="239" y="1208" type="line"/>
      <point x="239" y="1499" type="line"/>
      <point x="239" y="1554"/>
      <point x="213" y="1588"/>
      <point x="118" y="1588" type="curve" smooth="yes"/>
      <point x="61" y="1588"/>
      <point x="14" y="1558"/>
      <point x="-98" y="1558" type="curve" smooth="yes"/>
      <point x="-228" y="1558"/>
      <point x="-318" y="1616"/>
      <point x="-398" y="1717" type="curve"/>
      <point x="-294" y="1876" type="line"/>
      <point x="-213" y="1799"/>
      <point x="-162" y="1775"/>
      <point x="-105" y="1775" type="curve" smooth="yes"/>
      <point x="-14" y="1775"/>
      <point x="67" y="1821"/>
      <point x="210" y="1821" type="curve" smooth="yes"/>
      <point x="372" y="1821"/>
      <point x="488" y="1712"/>
      <point x="488" y="1536" type="curve" smooth="yes"/>
      <point x="488" y="1208" type="line"/>
    </contour>
    <contour>
      <point x="61" y="1160" type="line"/>
      <point x="9" y="1283" type="line"/>
      <point x="-17" y="1346"/>
      <point x="-55" y="1383"/>
      <point x="-133" y="1383" type="curve" smooth="yes"/>
      <point x="-201" y="1383"/>
      <point x="-250" y="1355"/>
      <point x="-371" y="1355" type="curve" smooth="yes"/>
      <point x="-515" y="1355"/>
      <point x="-621" y="1421"/>
      <point x="-717" y="1523" type="curve"/>
      <point x="-605" y="1671" type="line"/>
      <point x="-518" y="1593"/>
      <point x="-451" y="1566"/>
      <point x="-379" y="1566" type="curve" smooth="yes"/>
      <point x="-272" y="1566"/>
      <point x="-193" y="1608"/>
      <point x="-91" y="1608" type="curve" smooth="yes"/>
      <point x="117" y="1608"/>
      <point x="181" y="1543"/>
      <point x="257" y="1330" type="curve" smooth="yes"/>
      <point x="319" y="1160" type="line"/>
    </contour>
    <component base="aavowelsigndeva"/>
  </outline>
</glyph>
<glyph name="candralongevowelsigndeva" format="1">
  <advance width="0"/>
  <unicode hex="0955"/>
  <outline>
    <component base="ecandravowelsigndeva" yScale="0.885318889373" xOffset="-299" yOffset="336"/>
    <component base="anudattadeva" xOffset="-20" yOffset="1686"/>
    <contour>
      <point x="-539" y="1293" type="move" name="_top"/>
    </contour>
  </outline>
</glyph>
<glyph name="llvocalicdeva" format="1">
  <advance width="1681"/>
  <unicode hex="0961"/>
  <outline>
    <contour>
      <point x="1017" y="637" type="curve"/>
      <point x="813" y="467" type="line"/>
      <point x="724" y="570"/>
      <point x="646" y="618"/>
      <point x="551" y="618" type="curve" smooth="yes"/>
      <point x="435" y="618"/>
      <point x="368" y="532"/>
      <point x="368" y="436" type="curve" smooth="yes"/>
      <point x="368" y="341"/>
      <point x="426" y="253"/>
      <point x="579" y="107" type="curve"/>
      <point x="335" y="-22" type="line"/>
      <point x="156" y="140"/>
      <point x="51" y="321"/>
      <point x="51" y="510" type="curve" smooth="yes"/>
      <point x="51" y="740"/>
      <point x="214" y="908"/>
      <point x="449" y="908" type="curve" smooth="yes"/>
      <point x="668" y="908"/>
      <point x="818" y="831"/>
    </contour>
    <contour>
      <point x="1730" y="-414" type="line"/>
      <point x="1660" y="-436"/>
      <point x="1558" y="-457"/>
      <point x="1475" y="-457" type="curve" smooth="yes"/>
      <point x="1229" y="-457"/>
      <point x="1138" y="-334"/>
      <point x="1138" y="-215" type="curve" smooth="yes"/>
      <point x="1138" y="-64"/>
      <point x="1294" y="39"/>
      <point x="1533" y="39" type="curve"/>
      <point x="1582" y="-91" type="line"/>
      <point x="1470" y="-91"/>
      <point x="1408" y="-144"/>
      <point x="1408" y="-201" type="curve" smooth="yes"/>
      <point x="1408" y="-243"/>
      <point x="1432" y="-277"/>
      <point x="1512" y="-277" type="curve" smooth="yes"/>
      <point x="1568" y="-277"/>
      <point x="1612" y="-268"/>
      <point x="1694" y="-238" type="curve"/>
    </contour>
    <contour>
      <point x="995" y="1104" type="line"/>
      <point x="1344" y="1104" type="line"/>
      <point x="1344" y="813" type="line"/>
      <point x="995" y="813" type="line"/>
    </contour>
    <contour>
      <point x="-30" y="1065" type="line"/>
      <point x="-30" y="1293" type="line"/>
      <point x="1711" y="1293" type="line"/>
      <point x="1711" y="1065" type="line"/>
    </contour>
    <contour>
      <point x="1572" y="486" type="curve" smooth="yes"/>
      <point x="1572" y="391"/>
      <point x="1541" y="298"/>
      <point x="1502" y="218" type="curve"/>
      <point x="1466" y="218" type="line"/>
      <point x="1360" y="218"/>
      <point x="1320" y="174"/>
      <point x="1320" y="135" type="curve" smooth="yes"/>
      <point x="1320" y="93"/>
      <point x="1351" y="58"/>
      <point x="1422" y="58" type="curve" smooth="yes"/>
      <point x="1479" y="58"/>
      <point x="1516" y="63"/>
      <point x="1615" y="90" type="curve"/>
      <point x="1653" y="-103" type="line"/>
      <point x="1554" y="-126"/>
      <point x="1496" y="-131"/>
      <point x="1413" y="-131" type="curve" smooth="yes"/>
      <point x="1158" y="-131"/>
      <point x="1011" y="-9"/>
      <point x="1011" y="150" type="curve" smooth="yes"/>
      <point x="1011" y="279"/>
      <point x="1151" y="393"/>
      <point x="1330" y="393" type="curve" smooth="yes"/>
      <point x="1370" y="393"/>
      <point x="1417" y="387"/>
      <point x="1449" y="380" type="curve"/>
      <point x="1188" y="285" type="line"/>
      <point x="1230" y="346"/>
      <point x="1262" y="414"/>
      <point x="1262" y="498" type="curve" smooth="yes"/>
      <point x="1262" y="567"/>
      <point x="1217" y="604"/>
      <point x="1153" y="604" type="curve" smooth="yes"/>
      <point x="1056" y="604"/>
      <point x="953" y="485"/>
      <point x="905" y="245" type="curve"/>
      <point x="609" y="349" type="line"/>
      <point x="674" y="643"/>
      <point x="824" y="893"/>
      <point x="1131" y="893" type="curve" smooth="yes"/>
      <point x="1400" y="893"/>
      <point x="1572" y="716"/>
    </contour>
  </outline>
</glyph>
<glyph name="lvocalicvowelsigndeva" format="1">
  <advance width="-3"/>
  <unicode hex="0962"/>
  <outline>
    <contour>
      <point x="-286" y="-104" type="curve"/>
      <point x="-415" y="-213" type="line"/>
      <point x="-464" y="-147"/>
      <point x="-510" y="-113"/>
      <point x="-561" y="-113" type="curve" smooth="yes"/>
      <point x="-612" y="-113"/>
      <point x="-650" y="-149"/>
      <point x="-650" y="-196" type="curve" smooth="yes"/>
      <point x="-650" y="-247"/>
      <point x="-620" y="-295"/>
      <point x="-525" y="-366" type="curve"/>
      <point x="-670" y="-464" type="line"/>
      <point x="-796" y="-369"/>
      <point x="-856" y="-261"/>
      <point x="-856" y="-156" type="curve" smooth="yes"/>
      <point x="-856" y="-33"/>
      <point x="-767" y="72"/>
      <point x="-609" y="72" type="curve" smooth="yes"/>
      <point x="-478" y="72"/>
      <point x="-384" y="15"/>
    </contour>
    <contour>
      <point x="-109" y="-241" type="curve"/>
      <point x="-182" y="-305" type="line"/>
      <point x="-144" y="-259"/>
      <point x="-122" y="-219"/>
      <point x="-122" y="-180" type="curve" smooth="yes"/>
      <point x="-122" y="-142"/>
      <point x="-148" y="-114"/>
      <point x="-192" y="-114" type="curve" smooth="yes"/>
      <point x="-254" y="-114"/>
      <point x="-307" y="-179"/>
      <point x="-332" y="-299" type="curve"/>
      <point x="-516" y="-235" type="line"/>
      <point x="-478" y="-35"/>
      <point x="-364" y="70"/>
      <point x="-200" y="70" type="curve" smooth="yes"/>
      <point x="-44" y="70"/>
      <point x="54" y="-39"/>
      <point x="54" y="-167" type="curve" smooth="yes"/>
      <point x="54" y="-238"/>
      <point x="40" y="-290"/>
      <point x="16" y="-345" type="curve"/>
      <point x="-79" y="-346"/>
      <point x="-114" y="-377"/>
      <point x="-114" y="-408" type="curve" smooth="yes"/>
      <point x="-114" y="-438"/>
      <point x="-98" y="-456"/>
      <point x="-51" y="-456" type="curve" smooth="yes"/>
      <point x="-17" y="-456"/>
      <point x="12" y="-447"/>
      <point x="58" y="-425" type="curve"/>
      <point x="80" y="-562" type="line"/>
      <point x="28" y="-581"/>
      <point x="-10" y="-586"/>
      <point x="-62" y="-586" type="curve" smooth="yes"/>
      <point x="-198" y="-586"/>
      <point x="-290" y="-508"/>
      <point x="-290" y="-416" type="curve" smooth="yes"/>
      <point x="-290" y="-327"/>
      <point x="-223" y="-259"/>
    </contour>
    <contour>
      <point x="-539" y="0" type="move" name="_btm"/>
    </contour>
  </outline>
</glyph>
<glyph name="zerodeva" format="1">
  <advance width="1244"/>
  <unicode hex="0966"/>
  <outline>
    <contour>
      <point x="613" y="1144" type="curve" smooth="yes"/>
      <point x="957" y="1144"/>
      <point x="1167" y="917"/>
      <point x="1167" y="621" type="curve" smooth="yes"/>
      <point x="1167" y="363"/>
      <point x="988" y="132"/>
      <point x="640" y="132" type="curve" smooth="yes"/>
      <point x="301" y="132"/>
      <point x="78" y="370"/>
      <point x="78" y="657" type="curve" smooth="yes"/>
      <point x="78" y="912"/>
      <point x="278" y="1144"/>
    </contour>
    <contour>
      <point x="612" y="420" type="curve" smooth="yes"/>
      <point x="740" y="420"/>
      <point x="839" y="524"/>
      <point x="839" y="652" type="curve" smooth="yes"/>
      <point x="839" y="768"/>
      <point x="767" y="864"/>
      <point x="636" y="864" type="curve" smooth="yes"/>
      <point x="500" y="864"/>
      <point x="415" y="748"/>
      <point x="415" y="623" type="curve" smooth="yes"/>
      <point x="415" y="500"/>
      <point x="497" y="420"/>
    </contour>
  </outline>
</glyph>
<glyph name="eightdeva" format="1">
  <advance width="1123"/>
  <unicode hex="096E"/>
  <outline>
    <contour>
      <point x="643" y="1316" type="line"/>
      <point x="932" y="1089" type="line"/>
      <point x="525" y="627" type="line"/>
      <point x="451" y="544"/>
      <point x="433" y="495"/>
      <point x="433" y="440" type="curve" smooth="yes"/>
      <point x="433" y="377"/>
      <point x="493" y="321"/>
      <point x="571" y="321" type="curve" smooth="yes"/>
      <point x="674" y="322"/>
      <point x="784" y="368"/>
      <point x="967" y="507" type="curve"/>
      <point x="1151" y="204" type="line"/>
      <point x="965" y="68"/>
      <point x="821" y="23"/>
      <point x="623" y="23" type="curve" smooth="yes"/>
      <point x="295" y="23"/>
      <point x="75" y="227"/>
      <point x="75" y="484" type="curve" smooth="yes"/>
      <point x="75" y="603"/>
      <point x="111" y="713"/>
      <point x="224" y="841" type="curve" smooth="yes"/>
    </contour>
  </outline>
</glyph>
<glyph name="ninedeva" format="1">
  <advance width="1067"/>
  <unicode hex="096F"/>
  <outline>
    <contour>
      <point x="480" y="700" type="curve" smooth="yes"/>
      <point x="926" y="284" type="line"/>
      <point x="1005" y="210"/>
      <point x="1051" y="122"/>
      <point x="1051" y="47" type="curve" smooth="yes"/>
      <point x="1051" y="-27"/>
      <point x="1027" y="-97"/>
      <point x="996" y="-155" type="curve"/>
      <point x="654" y="-84" type="line"/>
      <point x="680" y="-39"/>
      <point x="693" y="-4"/>
      <point x="693" y="34" type="curve" smooth="yes"/>
      <point x="693" y="77"/>
      <point x="681" y="111"/>
      <point x="630" y="159" type="curve" smooth="yes"/>
      <point x="291" y="480" type="line"/>
      <point x="133" y="630"/>
      <point x="60" y="752"/>
      <point x="60" y="928" type="curve" smooth="yes"/>
      <point x="60" y="1117"/>
      <point x="213" y="1312"/>
      <point x="498" y="1312" type="curve" smooth="yes"/>
      <point x="803" y="1312"/>
      <point x="973" y="1107"/>
      <point x="973" y="878" type="curve" smooth="yes"/>
      <point x="973" y="675"/>
      <point x="820" y="504"/>
      <point x="582" y="467" type="curve"/>
      <point x="405" y="680" type="line"/>
      <point x="587" y="715"/>
      <point x="664" y="802"/>
      <point x="664" y="892" type="curve" smooth="yes"/>
      <point x="664" y="971"/>
      <point x="607" y="1039"/>
      <point x="522" y="1039" type="curve" smooth="yes"/>
      <point x="436" y="1039"/>
      <point x="382" y="968"/>
      <point x="382" y="891" type="curve" smooth="yes"/>
      <point x="382" y="819"/>
      <point x="411" y="764"/>
    </contour>
  </outline>
</glyph>
<glyph name="jjyadeva" format="1">
  <advance width="1422"/>
  <unicode hex="097A"/>
  <outline>
    <contour>
      <point x="1018" y="536" type="line"/>
      <point x="844" y="402" type="line"/>
      <point x="379" y="1092" type="line"/>
      <point x="562" y="1228" type="line"/>
    </contour>
    <contour>
      <point x="-30" y="1065" type="line"/>
      <point x="-30" y="1293" type="line"/>
      <point x="1452" y="1293" type="line"/>
      <point x="1452" y="1065" type="line"/>
    </contour>
    <contour>
      <point x="320" y="1104" type="line"/>
      <point x="650" y="1104" type="line"/>
      <point x="650" y="933" type="line"/>
      <point x="650" y="713"/>
      <point x="558" y="588"/>
      <point x="333" y="518" type="curve"/>
      <point x="343" y="622" type="line"/>
      <point x="407" y="538"/>
      <point x="502" y="480"/>
      <point x="616" y="480" type="curve" smooth="yes"/>
      <point x="772" y="480"/>
      <point x="874" y="551"/>
      <point x="931" y="685" type="curve"/>
      <point x="931" y="244" type="line"/>
      <point x="874" y="223"/>
      <point x="805" y="212"/>
      <point x="712" y="212" type="curve" smooth="yes"/>
      <point x="403" y="212"/>
      <point x="141" y="398"/>
      <point x="13" y="669" type="curve"/>
      <point x="13" y="674" type="line"/>
      <point x="229" y="746"/>
      <point x="320" y="824"/>
      <point x="320" y="957" type="curve" smooth="yes"/>
    </contour>
    <contour>
      <point x="885" y="1104" type="line"/>
      <point x="1234" y="1104" type="line"/>
      <point x="1234" y="0" type="line"/>
      <point x="885" y="0" type="line"/>
    </contour>
    <contour>
      <point x="885" y="1293" type="move" name="top"/>
    </contour>
  </outline>
</glyph>
<glyph name="dadadeva" format="1">
  <advance width="1261"/>
  <outline>
    <contour>
      <point x="762" y="-107" type="line"/>
      <point x="1023" y="-26" type="line"/>
      <point x="1235" y="-415" type="line"/>
      <point x="980" y="-517" type="line"/>
    </contour>
    <contour>
      <point x="1291" y="1065" type="line"/>
      <point x="-30" y="1065" type="line"/>
      <point x="-30" y="1293" type="line"/>
      <point x="1291" y="1293" type="line"/>
    </contour>
    <contour>
      <point x="478" y="173" type="curve" smooth="yes"/>
      <point x="478" y="76"/>
      <point x="568" y="25"/>
      <point x="698" y="25" type="curve" smooth="yes"/>
      <point x="781" y="25"/>
      <point x="876" y="31"/>
      <point x="949" y="53" type="curve"/>
      <point x="749" y="-69" type="line"/>
      <point x="712" y="-5"/>
      <point x="699" y="47"/>
      <point x="699" y="102" type="curve" smooth="yes"/>
      <point x="699" y="175"/>
      <point x="747" y="242"/>
      <point x="886" y="242" type="curve" smooth="yes"/>
      <point x="1099" y="242"/>
      <point x="1235" y="129"/>
      <point x="1235" y="23" type="curve" smooth="yes"/>
      <point x="1235" y="-92"/>
      <point x="1074" y="-217"/>
      <point x="750" y="-217" type="curve" smooth="yes"/>
      <point x="389" y="-217"/>
      <point x="157" y="-44"/>
      <point x="157" y="214" type="curve" smooth="yes"/>
      <point x="157" y="446"/>
      <point x="402" y="595"/>
      <point x="696" y="595" type="curve" smooth="yes"/>
      <point x="855" y="595"/>
      <point x="993" y="571"/>
      <point x="1104" y="533" type="curve"/>
      <point x="1069" y="329" type="line"/>
      <point x="983" y="353"/>
      <point x="890" y="368"/>
      <point x="770" y="368" type="curve" smooth="yes"/>
      <point x="569" y="368"/>
      <point x="478" y="267"/>
    </contour>
    <contour>
      <point x="503" y="509" type="curve"/>
      <point x="293" y="343" type="line"/>
      <point x="131" y="440"/>
      <point x="48" y="549"/>
      <point x="48" y="684" type="curve" smooth="yes"/>
      <point x="48" y="823"/>
      <point x="150" y="936"/>
      <point x="393" y="936" type="curve" smooth="yes"/>
      <point x="774" y="936" type="line"/>
      <point x="707" y="870" type="line"/>
      <point x="707" y="1086" type="line"/>
      <point x="1055" y="1086" type="line"/>
      <point x="1055" y="707" type="line"/>
      <point x="511" y="707" type="line"/>
      <point x="434" y="707"/>
      <point x="385" y="672"/>
      <point x="385" y="619" type="curve" smooth="yes"/>
      <point x="385" y="568"/>
      <point x="432" y="534"/>
    </contour>
    <contour>
      <point x="536" y="-490" type="move" name="btm"/>
    </contour>
    <contour>
      <point x="707" y="1293" type="move" name="top"/>
    </contour>
  </outline>
</glyph>
<glyph name="dadhadeva" format="1">
  <advance width="1524"/>
  <outline>
    <contour>
      <point x="567" y="-47" type="line"/>
      <point x="509" y="-70"/>
      <point x="447" y="-84"/>
      <point x="336" y="-84" type="curve" smooth="yes"/>
      <point x="108" y="-84"/>
      <point x="-37" y="53"/>
      <point x="-37" y="243" type="curve" smooth="yes"/>
      <point x="-37" y="348"/>
      <point x="3" y="453"/>
      <point x="74" y="551" type="curve"/>
      <point x="310" y="406" type="line"/>
      <point x="272" y="356"/>
      <point x="252" y="295"/>
      <point x="252" y="242" type="curve" smooth="yes"/>
      <point x="252" y="179"/>
      <point x="298" y="128"/>
      <point x="387" y="128" type="curve" smooth="yes"/>
      <point x="464" y="128"/>
      <point x="533" y="148"/>
      <point x="599" y="192" type="curve"/>
    </contour>
    <contour>
      <point x="865" y="66" type="line"/>
      <point x="738" y="20"/>
      <point x="696" y="-67"/>
      <point x="695" y="-117" type="curve" smooth="yes"/>
      <point x="694" y="-165"/>
      <point x="725" y="-200"/>
      <point x="784" y="-200" type="curve" smooth="yes"/>
      <point x="911" y="-200"/>
      <point x="1033" y="-39"/>
      <point x="1010" y="188" type="curve"/>
      <point x="1216" y="-197" type="line"/>
      <point x="1115" y="-352"/>
      <point x="973" y="-443"/>
      <point x="783" y="-443" type="curve" smooth="yes"/>
      <point x="556" y="-443"/>
      <point x="433" y="-283"/>
      <point x="433" y="-126" type="curve" smooth="yes"/>
      <point x="433" y="-12"/>
      <point x="478" y="130"/>
      <point x="670" y="245" type="curve"/>
    </contour>
    <contour>
      <point x="-30" y="1065" type="line"/>
      <point x="-30" y="1293" type="line"/>
      <point x="1554" y="1293" type="line"/>
      <point x="1554" y="1065" type="line"/>
    </contour>
    <contour>
      <point x="982" y="162" type="line"/>
      <point x="1244" y="247" type="line"/>
      <point x="1530" y="-289" type="line"/>
      <point x="1279" y="-398" type="line"/>
    </contour>
    <contour>
      <point x="974" y="51" type="curve" smooth="yes"/>
      <point x="621" y="51"/>
      <point x="373" y="240"/>
      <point x="373" y="511" type="curve" smooth="yes"/>
      <point x="373" y="737"/>
      <point x="526" y="908"/>
      <point x="882" y="908" type="curve" smooth="yes"/>
      <point x="1026" y="908" type="line"/>
      <point x="956" y="852" type="line"/>
      <point x="956" y="1096" type="line"/>
      <point x="1306" y="1096" type="line"/>
      <point x="1306" y="666" type="line"/>
      <point x="978" y="666" type="line"/>
      <point x="777" y="666"/>
      <point x="697" y="587"/>
      <point x="697" y="471" type="curve" smooth="yes"/>
      <point x="697" y="365"/>
      <point x="787" y="292"/>
      <point x="911" y="292" type="curve" smooth="yes"/>
      <point x="1004" y="292"/>
      <point x="1050" y="294"/>
      <point x="1167" y="319" type="curve"/>
      <point x="965" y="206" type="line"/>
      <point x="930" y="258"/>
      <point x="920" y="320"/>
      <point x="920" y="369" type="curve" smooth="yes"/>
      <point x="920" y="435"/>
      <point x="961" y="510"/>
      <point x="1107" y="510" type="curve" smooth="yes"/>
      <point x="1304" y="510"/>
      <point x="1454" y="411"/>
      <point x="1454" y="291" type="curve" smooth="yes"/>
      <point x="1454" y="169"/>
      <point x="1293" y="51"/>
    </contour>
    <contour>
      <point x="950" y="-490" type="move" name="btm"/>
    </contour>
    <contour>
      <point x="957" y="1293" type="move" name="top"/>
    </contour>
  </outline>
</glyph>
<glyph name="dagadeva" format="1">
  <advance width="1218"/>
  <outline>
    <contour>
      <point x="677" y="162" type="line"/>
      <point x="939" y="247" type="line"/>
      <point x="1225" y="-289" type="line"/>
      <point x="974" y="-398" type="line"/>
    </contour>
    <contour>
      <point x="-30" y="1065" type="line"/>
      <point x="-30" y="1293" type="line"/>
      <point x="1248" y="1293" type="line"/>
      <point x="1248" y="1065" type="line"/>
    </contour>
    <contour>
      <point x="669" y="51" type="curve" smooth="yes"/>
      <point x="316" y="51"/>
      <point x="68" y="240"/>
      <point x="68" y="511" type="curve" smooth="yes"/>
      <point x="68" y="737"/>
      <point x="221" y="908"/>
      <point x="577" y="908" type="curve" smooth="yes"/>
      <point x="721" y="908" type="line"/>
      <point x="652" y="852" type="line"/>
      <point x="652" y="1096" type="line"/>
      <point x="1001" y="1096" type="line"/>
      <point x="1001" y="666" type="line"/>
      <point x="673" y="666" type="line"/>
      <point x="472" y="666"/>
      <point x="392" y="587"/>
      <point x="392" y="471" type="curve" smooth="yes"/>
      <point x="392" y="365"/>
      <point x="482" y="292"/>
      <point x="607" y="292" type="curve" smooth="yes"/>
      <point x="699" y="292"/>
      <point x="745" y="294"/>
      <point x="862" y="319" type="curve"/>
      <point x="660" y="206" type="line"/>
      <point x="626" y="258"/>
      <point x="615" y="320"/>
      <point x="615" y="369" type="curve" smooth="yes"/>
      <point x="615" y="435"/>
      <point x="656" y="510"/>
      <point x="802" y="510" type="curve" smooth="yes"/>
      <point x="999" y="510"/>
      <point x="1149" y="411"/>
      <point x="1149" y="291" type="curve" smooth="yes"/>
      <point x="1149" y="169"/>
      <point x="988" y="51"/>
    </contour>
    <contour>
      <point x="501" y="248" type="line"/>
      <point x="562" y="-304" type="line"/>
      <point x="573" y="-398"/>
      <point x="551" y="-448"/>
      <point x="453" y="-448" type="curve" smooth="yes"/>
      <point x="296" y="-448"/>
      <point x="66" y="-315"/>
      <point x="66" y="-193" type="curve" smooth="yes"/>
      <point x="66" y="-143"/>
      <point x="100" y="-104"/>
      <point x="173" y="-96" type="curve" smooth="yes"/>
      <point x="285" y="-83" type="line"/>
      <point x="250" y="-122" type="line"/>
      <point x="212" y="216" type="line"/>
    </contour>
    <contour>
      <point x="582" y="-488" type="move" name="btm"/>
    </contour>
    <contour>
      <point x="652" y="1293" type="move" name="top"/>
    </contour>
  </outline>
</glyph>
<glyph name="darvocalicdeva" format="1">
  <advance width="1248"/>
  <outline>
    <contour>
      <point x="-30" y="1065" type="line"/>
      <point x="-30" y="1293" type="line"/>
      <point x="1278" y="1293" type="line"/>
      <point x="1278" y="1065" type="line"/>
    </contour>
    <contour>
      <point x="669" y="51" type="curve" smooth="yes"/>
      <point x="316" y="51"/>
      <point x="68" y="240"/>
      <point x="68" y="511" type="curve" smooth="yes"/>
      <point x="68" y="750"/>
      <point x="239" y="908"/>
      <point x="571" y="908" type="curve" smooth="yes"/>
      <point x="721" y="908" type="line"/>
      <point x="652" y="852" type="line"/>
      <point x="652" y="1096" type="line"/>
      <point x="1001" y="1096" type="line"/>
      <point x="1001" y="666" type="line"/>
      <point x="673" y="666" type="line"/>
      <point x="472" y="666"/>
      <point x="389" y="587"/>
      <point x="389" y="470" type="curve" smooth="yes"/>
      <point x="389" y="364"/>
      <point x="482" y="292"/>
      <point x="607" y="292" type="curve" smooth="yes"/>
      <point x="699" y="292"/>
      <point x="745" y="294"/>
      <point x="862" y="319" type="curve"/>
      <point x="659" y="205" type="line"/>
      <point x="624" y="269"/>
      <point x="615" y="320"/>
      <point x="615" y="369" type="curve" smooth="yes"/>
      <point x="615" y="435"/>
      <point x="656" y="510"/>
      <point x="802" y="510" type="curve" smooth="yes"/>
      <point x="999" y="510"/>
      <point x="1149" y="411"/>
      <point x="1149" y="291" type="curve" smooth="yes"/>
      <point x="1149" y="169"/>
      <point x="988" y="51"/>
    </contour>
    <contour>
      <point x="1170" y="-186" type="line"/>
      <point x="1164" y="-214" type="line"/>
      <point x="1125" y="-214"/>
      <point x="1062" y="-214"/>
      <point x="1021" y="-214" type="curve" smooth="yes"/>
      <point x="883" y="-214"/>
      <point x="823" y="-268"/>
      <point x="823" y="-346" type="curve" smooth="yes"/>
      <point x="823" y="-401"/>
      <point x="873" y="-440"/>
      <point x="959" y="-440" type="curve" smooth="yes"/>
      <point x="1037" y="-440"/>
      <point x="1095" y="-424"/>
      <point x="1182" y="-390" type="curve"/>
      <point x="1217" y="-611" type="line"/>
      <point x="1102" y="-645"/>
      <point x="1053" y="-651"/>
      <point x="967" y="-651" type="curve" smooth="yes"/>
      <point x="741" y="-651"/>
      <point x="542" y="-530"/>
      <point x="542" y="-319" type="curve" smooth="yes"/>
      <point x="542" y="-138"/>
      <point x="703" y="-12"/>
      <point x="944" y="-12" type="curve"/>
      <point x="832" y="-131" type="line"/>
      <point x="674" y="167" type="line"/>
      <point x="939" y="247" type="line"/>
    </contour>
  </outline>
</glyph>
<glyph name="dayaprehalfdeva" format="1">
  <advance width="1080"/>
  <outline>
    <contour>
      <point x="442" y="1105" type="line"/>
      <point x="790" y="1105" type="line"/>
      <point x="790" y="850" type="line"/>
      <point x="442" y="850" type="line"/>
    </contour>
    <contour>
      <point x="433" y="324" type="line"/>
      <point x="151" y="407"/>
      <point x="27" y="544"/>
      <point x="27" y="697" type="curve" smooth="yes"/>
      <point x="27" y="846"/>
      <point x="148" y="946"/>
      <point x="384" y="946" type="curve" smooth="yes"/>
      <point x="501" y="946"/>
      <point x="698" y="946"/>
      <point x="790" y="946" type="curve"/>
      <point x="790" y="742" type="line"/>
      <point x="726" y="742"/>
      <point x="581" y="742"/>
      <point x="534" y="742" type="curve" smooth="yes"/>
      <point x="421" y="742"/>
      <point x="370" y="702"/>
      <point x="370" y="647" type="curve" smooth="yes"/>
      <point x="370" y="593"/>
      <point x="449" y="545"/>
      <point x="588" y="532" type="curve"/>
    </contour>
    <contour>
      <point x="1110" y="1065" type="line"/>
      <point x="-30" y="1065" type="line"/>
      <point x="-30" y="1293" type="line"/>
      <point x="1110" y="1293" type="line"/>
    </contour>
    <contour>
      <point x="952" y="405" type="line"/>
      <point x="941" y="405" type="line"/>
      <point x="769" y="405"/>
      <point x="695" y="356"/>
      <point x="695" y="301" type="curve" smooth="yes"/>
      <point x="695" y="258"/>
      <point x="733" y="225"/>
      <point x="805" y="225" type="curve" smooth="yes"/>
      <point x="971" y="225"/>
      <point x="1118" y="337"/>
      <point x="1263" y="662" type="curve"/>
      <point x="1471" y="432" type="line"/>
      <point x="1348" y="198"/>
      <point x="1140" y="-18"/>
      <point x="816" y="-18" type="curve" smooth="yes"/>
      <point x="533" y="-18"/>
      <point x="363" y="144"/>
      <point x="363" y="338" type="curve" smooth="yes"/>
      <point x="363" y="506"/>
      <point x="499" y="640"/>
      <point x="869" y="640" type="curve" smooth="yes"/>
      <point x="876" y="640" type="line"/>
    </contour>
  </outline>
</glyph>
<glyph name="ddaddhadeva" format="1">
  <advance width="1261"/>
  <outline>
    <contour>
      <point x="589" y="195" type="line"/>
      <point x="927" y="195" type="line"/>
      <point x="927" y="-176" type="line"/>
      <point x="627" y="-176" type="line"/>
      <point x="401" y="-176"/>
      <point x="331" y="-257"/>
      <point x="331" y="-356" type="curve" smooth="yes"/>
      <point x="331" y="-464"/>
      <point x="465" y="-537"/>
      <point x="680" y="-537" type="curve" smooth="yes"/>
      <point x="861" y="-537"/>
      <point x="907" y="-505"/>
      <point x="907" y="-469" type="curve" smooth="yes"/>
      <point x="907" y="-435"/>
      <point x="873" y="-416"/>
      <point x="810" y="-416" type="curve" smooth="yes"/>
      <point x="734" y="-416"/>
      <point x="672" y="-455"/>
      <point x="672" y="-510" type="curve" smooth="yes"/>
      <point x="672" y="-554"/>
      <point x="687" y="-596"/>
      <point x="708" y="-633" type="curve"/>
      <point x="457" y="-652" type="line"/>
      <point x="425" y="-588"/>
      <point x="414" y="-540"/>
      <point x="414" y="-468" type="curve" smooth="yes"/>
      <point x="414" y="-371"/>
      <point x="536" y="-255"/>
      <point x="797" y="-255" type="curve" smooth="yes"/>
      <point x="1058" y="-255"/>
      <point x="1147" y="-362"/>
      <point x="1147" y="-470" type="curve" smooth="yes"/>
      <point x="1147" y="-592"/>
      <point x="1001" y="-711"/>
      <point x="679" y="-711" type="curve" smooth="yes"/>
      <point x="254" y="-711"/>
      <point x="12" y="-506"/>
      <point x="12" y="-289" type="curve" smooth="yes"/>
      <point x="12" y="-122"/>
      <point x="133" y="36"/>
      <point x="519" y="36" type="curve" smooth="yes"/>
      <point x="630" y="36" type="line"/>
      <point x="589" y="2" type="line"/>
    </contour>
    <contour>
      <point x="663" y="1086" type="line"/>
      <point x="1012" y="1086" type="line"/>
      <point x="1012" y="747" type="line"/>
      <point x="531" y="747" type="line"/>
      <point x="453" y="747"/>
      <point x="422" y="719"/>
      <point x="422" y="682" type="curve" smooth="yes"/>
      <point x="422" y="647"/>
      <point x="450" y="626"/>
      <point x="514" y="604" type="curve"/>
      <point x="401" y="621" type="line"/>
      <point x="491" y="659"/>
      <point x="603" y="685"/>
      <point x="727" y="685" type="curve" smooth="yes"/>
      <point x="998" y="685"/>
      <point x="1150" y="566"/>
      <point x="1150" y="401" type="curve" smooth="yes"/>
      <point x="1150" y="239"/>
      <point x="1008" y="98"/>
      <point x="659" y="98" type="curve" smooth="yes"/>
      <point x="472" y="98"/>
      <point x="282" y="145"/>
      <point x="78" y="246" type="curve"/>
      <point x="134" y="477" type="line"/>
      <point x="330" y="367"/>
      <point x="490" y="323"/>
      <point x="623" y="323" type="curve" smooth="yes"/>
      <point x="777" y="323"/>
      <point x="834" y="362"/>
      <point x="834" y="402" type="curve" smooth="yes"/>
      <point x="834" y="440"/>
      <point x="792" y="464"/>
      <point x="707" y="464" type="curve" smooth="yes"/>
      <point x="619" y="464"/>
      <point x="535" y="443"/>
      <point x="466" y="412" type="curve"/>
      <point x="458" y="412" type="line"/>
      <point x="233" y="497"/>
      <point x="123" y="611"/>
      <point x="123" y="736" type="curve" smooth="yes"/>
      <point x="123" y="838"/>
      <point x="211" y="952"/>
      <point x="454" y="952" type="curve" smooth="yes"/>
      <point x="730" y="952" type="line"/>
      <point x="663" y="886" type="line"/>
    </contour>
    <contour>
      <point x="1291" y="1065" type="line"/>
      <point x="-30" y="1065" type="line"/>
      <point x="-30" y="1293" type="line"/>
      <point x="1291" y="1293" type="line"/>
    </contour>
    <contour>
      <point x="466" y="-713" type="move" name="btm"/>
    </contour>
    <contour>
      <point x="663" y="1293" type="move" name="top"/>
    </contour>
  </outline>
</glyph>
<glyph name="fivedevaNEP" format="1">
  <advance width="1116"/>
  <outline>
    <contour>
      <point x="303" y="122" type="line"/>
      <point x="545" y="195" type="line"/>
      <point x="716" y="-151" type="line"/>
      <point x="479" y="-244" type="line"/>
    </contour>
    <contour>
      <point x="373" y="295" type="curve" smooth="yes"/>
      <point x="554" y="299"/>
      <point x="648" y="396"/>
      <point x="674" y="624" type="curve" smooth="yes"/>
      <point x="746" y="1271" type="line"/>
      <point x="1058" y="1271" type="line"/>
      <point x="974" y="625" type="line"/>
      <point x="927" y="262"/>
      <point x="736" y="48"/>
      <point x="331" y="48" type="curve" smooth="yes"/>
      <point x="172" y="48"/>
      <point x="88" y="105"/>
      <point x="88" y="183" type="curve" smooth="yes"/>
      <point x="88" y="291"/>
      <point x="210" y="433"/>
      <point x="329" y="433" type="curve" smooth="yes"/>
      <point x="407" y="433"/>
      <point x="448" y="393"/>
      <point x="532" y="233" type="curve"/>
      <point x="240" y="231" type="line"/>
      <point x="243" y="231"/>
      <point x="370" y="295"/>
    </contour>
    <contour>
      <point x="828" y="886" type="curve"/>
      <point x="868" y="592" type="line"/>
      <point x="790" y="549"/>
      <point x="666" y="509"/>
      <point x="548" y="509" type="curve" smooth="yes"/>
      <point x="255" y="509"/>
      <point x="100" y="662"/>
      <point x="100" y="927" type="curve" smooth="yes"/>
      <point x="100" y="1271" type="line"/>
      <point x="402" y="1271" type="line"/>
      <point x="402" y="913" type="line"/>
      <point x="402" y="820"/>
      <point x="449" y="770"/>
      <point x="534" y="770" type="curve" smooth="yes"/>
      <point x="646" y="770"/>
      <point x="741" y="814"/>
    </contour>
  </outline>
</glyph>
<glyph name="garaprehalfdeva" format="1">
  <advance width="818"/>
  <outline>
    <contour>
      <point x="848" y="1065" type="line"/>
      <point x="-30" y="1065" type="line"/>
      <point x="-30" y="1293" type="line"/>
      <point x="848" y="1293" type="line"/>
    </contour>
    <contour>
      <point x="1246" y="283" type="line"/>
      <point x="556" y="-121" type="line"/>
      <point x="396" y="119" type="line"/>
      <point x="1077" y="526" type="line"/>
    </contour>
    <contour>
      <point x="642" y="1096" type="line"/>
      <point x="642" y="491" type="line" smooth="yes"/>
      <point x="642" y="389"/>
      <point x="604" y="332"/>
      <point x="507" y="332" type="curve" smooth="yes"/>
      <point x="298" y="332"/>
      <point x="68" y="549"/>
      <point x="68" y="680" type="curve" smooth="yes"/>
      <point x="68" y="743"/>
      <point x="106" y="790"/>
      <point x="195" y="790" type="curve" smooth="yes"/>
      <point x="340" y="790" type="line"/>
      <point x="294" y="748" type="line"/>
      <point x="294" y="1096" type="line"/>
    </contour>
  </outline>
</glyph>
<glyph name="haladeva" format="1">
  <advance width="1769"/>
  <outline>
    <contour>
      <point x="1353" y="281" type="line"/>
      <point x="1353" y="20" type="line"/>
      <point x="1098" y="-201" type="line"/>
      <point x="946" y="-52" type="line"/>
    </contour>
    <contour>
      <point x="1231" y="62" type="curve"/>
      <point x="1099" y="-46" type="line"/>
      <point x="1054" y="26"/>
      <point x="1015" y="57"/>
      <point x="959" y="57" type="curve" smooth="yes"/>
      <point x="898" y="57"/>
      <point x="850" y="13"/>
      <point x="850" y="-42" type="curve" smooth="yes"/>
      <point x="850" y="-102"/>
      <point x="881" y="-141"/>
      <point x="943" y="-205" type="curve"/>
      <point x="790" y="-272" type="line"/>
      <point x="698" y="-191"/>
      <point x="632" y="-88"/>
      <point x="632" y="7" type="curve" smooth="yes"/>
      <point x="632" y="133"/>
      <point x="718" y="235"/>
      <point x="894" y="235" type="curve" smooth="yes"/>
      <point x="1038" y="235"/>
      <point x="1114" y="184"/>
    </contour>
    <contour>
      <point x="1799" y="1065" type="line"/>
      <point x="-30" y="1065" type="line"/>
      <point x="-30" y="1293" type="line"/>
      <point x="1799" y="1293" type="line"/>
    </contour>
    <contour>
      <point x="1218" y="1077" type="line"/>
      <point x="1565" y="1077" type="line"/>
      <point x="1565" y="707" type="line"/>
      <point x="521" y="707" type="line"/>
      <point x="425" y="707"/>
      <point x="384" y="667"/>
      <point x="384" y="616" type="curve" smooth="yes"/>
      <point x="384" y="563"/>
      <point x="430" y="531"/>
      <point x="526" y="509" type="curve"/>
      <point x="295" y="340" type="line"/>
      <point x="127" y="441"/>
      <point x="48" y="553"/>
      <point x="48" y="687" type="curve" smooth="yes"/>
      <point x="48" y="824"/>
      <point x="158" y="935"/>
      <point x="380" y="935" type="curve" smooth="yes"/>
      <point x="1257" y="935" type="line"/>
      <point x="1218" y="883" type="line"/>
    </contour>
    <contour>
      <point x="844" y="334" type="curve" smooth="yes"/>
      <point x="530" y="334"/>
      <point x="424" y="183"/>
      <point x="424" y="40" type="curve" smooth="yes"/>
      <point x="424" y="-88"/>
      <point x="488" y="-198"/>
      <point x="740" y="-404" type="curve"/>
      <point x="545" y="-551" type="line"/>
      <point x="244" y="-326"/>
      <point x="135" y="-108"/>
      <point x="135" y="105" type="curve" smooth="yes"/>
      <point x="135" y="315"/>
      <point x="299" y="588"/>
      <point x="832" y="588" type="curve" smooth="yes"/>
      <point x="1346" y="588"/>
      <point x="1607" y="388"/>
      <point x="1607" y="81" type="curve" smooth="yes"/>
      <point x="1607" y="-353" type="line"/>
      <point x="1304" y="-353" type="line"/>
      <point x="1304" y="92" type="line"/>
      <point x="1304" y="245"/>
      <point x="1183" y="334"/>
    </contour>
    <contour>
      <point x="1304" y="-353" type="move" name="btm"/>
    </contour>
    <contour>
      <point x="1218" y="1293" type="move" name="top"/>
    </contour>
  </outline>
</glyph>
<glyph name="hamadeva" format="1">
  <advance width="1912"/>
  <outline>
    <contour>
      <point x="443" y="87" type="curve" smooth="yes"/>
      <point x="443" y="-41"/>
      <point x="502" y="-150"/>
      <point x="759" y="-355" type="curve"/>
      <point x="563" y="-504" type="line"/>
      <point x="274" y="-284"/>
      <point x="154" y="-71"/>
      <point x="154" y="143" type="curve" smooth="yes"/>
      <point x="154" y="366"/>
      <point x="306" y="574"/>
      <point x="636" y="574" type="curve" smooth="yes"/>
      <point x="937" y="574"/>
      <point x="1150" y="402"/>
      <point x="1150" y="122" type="curve" smooth="yes"/>
      <point x="1150" y="90" type="line"/>
      <point x="1072" y="193" type="line"/>
      <point x="1449" y="193" type="line"/>
      <point x="1449" y="-76" type="line"/>
      <point x="1101" y="-76" type="line"/>
      <point x="1151" y="-27" type="line"/>
      <point x="1151" y="-143" type="line"/>
      <point x="1151" y="-232"/>
      <point x="1110" y="-285"/>
      <point x="1022" y="-285" type="curve" smooth="yes"/>
      <point x="954" y="-285"/>
      <point x="862" y="-235"/>
      <point x="789" y="-165" type="curve" smooth="yes"/>
      <point x="718" y="-97"/>
      <point x="665" y="-13"/>
      <point x="665" y="65" type="curve" smooth="yes"/>
      <point x="665" y="141"/>
      <point x="715" y="193"/>
      <point x="802" y="193" type="curve" smooth="yes"/>
      <point x="882" y="193" type="line"/>
      <point x="856" y="130" type="line"/>
      <point x="856" y="164" type="line"/>
      <point x="856" y="266"/>
      <point x="792" y="324"/>
      <point x="659" y="324" type="curve" smooth="yes"/>
      <point x="540" y="324"/>
      <point x="443" y="243"/>
    </contour>
    <contour>
      <point x="740" y="1077" type="line"/>
      <point x="1088" y="1077" type="line"/>
      <point x="1088" y="707" type="line"/>
      <point x="521" y="707" type="line"/>
      <point x="425" y="707"/>
      <point x="384" y="667"/>
      <point x="384" y="616" type="curve" smooth="yes"/>
      <point x="384" y="563"/>
      <point x="430" y="531"/>
      <point x="526" y="509" type="curve"/>
      <point x="295" y="340" type="line"/>
      <point x="127" y="441"/>
      <point x="48" y="553"/>
      <point x="48" y="687" type="curve" smooth="yes"/>
      <point x="48" y="824"/>
      <point x="158" y="935"/>
      <point x="380" y="935" type="curve" smooth="yes"/>
      <point x="779" y="935" type="line"/>
      <point x="740" y="883" type="line"/>
    </contour>
    <contour>
      <point x="-30" y="1065" type="line"/>
      <point x="-30" y="1293" type="line"/>
      <point x="1942" y="1293" type="line"/>
      <point x="1942" y="1065" type="line"/>
    </contour>
    <contour>
      <point x="1381" y="1103" type="line"/>
      <point x="1730" y="1103" type="line"/>
      <point x="1730" y="-350" type="line"/>
      <point x="1381" y="-350" type="line"/>
    </contour>
    <contour>
      <point x="1381" y="-349" type="move" name="btm"/>
    </contour>
    <contour>
      <point x="1381" y="1293" type="move" name="top"/>
    </contour>
  </outline>
</glyph>
<glyph name="hanadeva" format="1">
  <advance width="1516"/>
  <outline>
    <contour>
      <point x="424" y="50" type="curve" smooth="yes"/>
      <point x="424" y="-96"/>
      <point x="502" y="-206"/>
      <point x="740" y="-402" type="curve"/>
      <point x="545" y="-552" type="line"/>
      <point x="255" y="-326"/>
      <point x="139" y="-127"/>
      <point x="139" y="115" type="curve" smooth="yes"/>
      <point x="139" y="326"/>
      <point x="315" y="588"/>
      <point x="748" y="588" type="curve" smooth="yes"/>
      <point x="1214" y="588"/>
      <point x="1448" y="388"/>
      <point x="1448" y="81" type="curve" smooth="yes"/>
      <point x="1448" y="-353" type="line"/>
      <point x="1145" y="-353" type="line"/>
      <point x="1145" y="92" type="line"/>
      <point x="1145" y="245"/>
      <point x="1052" y="334"/>
      <point x="759" y="334" type="curve" smooth="yes"/>
      <point x="545" y="334"/>
      <point x="424" y="205"/>
    </contour>
    <contour>
      <point x="1546" y="1065" type="line"/>
      <point x="-30" y="1065" type="line"/>
      <point x="-30" y="1293" type="line"/>
      <point x="1546" y="1293" type="line"/>
    </contour>
    <contour>
      <point x="992" y="1077" type="line"/>
      <point x="1339" y="1077" type="line"/>
      <point x="1339" y="707" type="line"/>
      <point x="521" y="707" type="line"/>
      <point x="425" y="707"/>
      <point x="384" y="667"/>
      <point x="384" y="616" type="curve" smooth="yes"/>
      <point x="384" y="563"/>
      <point x="430" y="531"/>
      <point x="526" y="509" type="curve"/>
      <point x="295" y="340" type="line"/>
      <point x="127" y="441"/>
      <point x="48" y="553"/>
      <point x="48" y="687" type="curve" smooth="yes"/>
      <point x="48" y="824"/>
      <point x="158" y="935"/>
      <point x="380" y="935" type="curve" smooth="yes"/>
      <point x="1031" y="935" type="line"/>
      <point x="992" y="883" type="line"/>
    </contour>
    <contour>
      <point x="1337" y="205" type="line"/>
      <point x="1337" y="-31" type="line"/>
      <point x="931" y="-31" type="line"/>
      <point x="981" y="20" type="line"/>
      <point x="981" y="-112" type="line"/>
      <point x="981" y="-192"/>
      <point x="946" y="-239"/>
      <point x="878" y="-239" type="curve" smooth="yes"/>
      <point x="839" y="-239"/>
      <point x="790" y="-209"/>
      <point x="738" y="-157" type="curve" smooth="yes"/>
      <point x="669" y="-88"/>
      <point x="609" y="14"/>
      <point x="610" y="88" type="curve" smooth="yes"/>
      <point x="611" y="162"/>
      <point x="656" y="205"/>
      <point x="763" y="205" type="curve" smooth="yes"/>
    </contour>
    <contour>
      <point x="1145" y="-353" type="move" name="btm"/>
    </contour>
    <contour>
      <point x="992" y="1293" type="move" name="top"/>
    </contour>
  </outline>
</glyph>
<glyph name="hannadeva" format="1">
  <advance width="1770"/>
  <outline>
    <contour>
      <point x="959" y="400" type="line"/>
      <point x="1209" y="400" type="line"/>
      <point x="1209" y="138" type="line"/>
      <point x="1209" y="-55"/>
      <point x="1135" y="-184"/>
      <point x="909" y="-184" type="curve" smooth="yes"/>
      <point x="678" y="-184"/>
      <point x="571" y="-39"/>
      <point x="571" y="148" type="curve" smooth="yes"/>
      <point x="571" y="400" type="line"/>
      <point x="821" y="400" type="line"/>
      <point x="821" y="94" type="line"/>
      <point x="821" y="31"/>
      <point x="832" y="-3"/>
      <point x="880" y="-3" type="curve" smooth="yes"/>
      <point x="943" y="-3"/>
      <point x="959" y="48"/>
      <point x="959" y="129" type="curve" smooth="yes"/>
    </contour>
    <contour>
      <point x="1800" y="1065" type="line"/>
      <point x="-30" y="1065" type="line"/>
      <point x="-30" y="1293" type="line"/>
      <point x="1800" y="1293" type="line"/>
    </contour>
    <contour>
      <point x="1246" y="1077" type="line"/>
      <point x="1593" y="1077" type="line"/>
      <point x="1593" y="707" type="line"/>
      <point x="521" y="707" type="line"/>
      <point x="425" y="707"/>
      <point x="384" y="667"/>
      <point x="384" y="616" type="curve" smooth="yes"/>
      <point x="384" y="563"/>
      <point x="430" y="531"/>
      <point x="526" y="509" type="curve"/>
      <point x="295" y="340" type="line"/>
      <point x="127" y="441"/>
      <point x="48" y="553"/>
      <point x="48" y="687" type="curve" smooth="yes"/>
      <point x="48" y="824"/>
      <point x="158" y="935"/>
      <point x="380" y="935" type="curve" smooth="yes"/>
      <point x="1285" y="935" type="line"/>
      <point x="1246" y="883" type="line"/>
    </contour>
    <contour>
      <point x="844" y="334" type="curve" smooth="yes"/>
      <point x="530" y="334"/>
      <point x="424" y="183"/>
      <point x="424" y="40" type="curve" smooth="yes"/>
      <point x="424" y="-88"/>
      <point x="488" y="-198"/>
      <point x="740" y="-404" type="curve"/>
      <point x="545" y="-551" type="line"/>
      <point x="244" y="-326"/>
      <point x="135" y="-108"/>
      <point x="135" y="105" type="curve" smooth="yes"/>
      <point x="135" y="315"/>
      <point x="299" y="588"/>
      <point x="832" y="588" type="curve" smooth="yes"/>
      <point x="1346" y="588"/>
      <point x="1607" y="388"/>
      <point x="1607" y="81" type="curve" smooth="yes"/>
      <point x="1607" y="-353" type="line"/>
      <point x="1304" y="-353" type="line"/>
      <point x="1304" y="92" type="line"/>
      <point x="1304" y="245"/>
      <point x="1183" y="334"/>
    </contour>
    <contour>
      <point x="1304" y="-353" type="move" name="btm"/>
    </contour>
    <contour>
      <point x="1246" y="1293" type="move" name="top"/>
    </contour>
  </outline>
</glyph>
<glyph name="haradeva" format="1">
  <advance width="1322"/>
  <outline>
    <contour>
      <point x="981" y="384" type="line"/>
      <point x="833" y="16" type="line"/>
      <point x="584" y="86" type="line"/>
      <point x="725" y="458" type="line"/>
    </contour>
    <contour>
      <point x="810" y="1077" type="line"/>
      <point x="1157" y="1077" type="line"/>
      <point x="1157" y="707" type="line"/>
      <point x="530" y="707" type="line"/>
      <point x="434" y="707"/>
      <point x="394" y="667"/>
      <point x="394" y="616" type="curve" smooth="yes"/>
      <point x="394" y="563"/>
      <point x="440" y="531"/>
      <point x="535" y="509" type="curve"/>
      <point x="304" y="340" type="line"/>
      <point x="136" y="441"/>
      <point x="57" y="553"/>
      <point x="57" y="687" type="curve" smooth="yes"/>
      <point x="57" y="824"/>
      <point x="167" y="935"/>
      <point x="390" y="935" type="curve" smooth="yes"/>
      <point x="849" y="935" type="line"/>
      <point x="810" y="883" type="line"/>
    </contour>
    <contour>
      <point x="730" y="582" type="curve" smooth="yes"/>
      <point x="1074" y="582"/>
      <point x="1273" y="421"/>
      <point x="1273" y="227" type="curve" smooth="yes"/>
      <point x="1273" y="146"/>
      <point x="1260" y="94"/>
      <point x="1228" y="19" type="curve"/>
      <point x="959" y="67" type="line"/>
      <point x="981" y="112"/>
      <point x="994" y="160"/>
      <point x="994" y="210" type="curve" smooth="yes"/>
      <point x="994" y="297"/>
      <point x="938" y="353"/>
      <point x="766" y="353" type="curve" smooth="yes"/>
      <point x="571" y="353"/>
      <point x="497" y="241"/>
      <point x="497" y="140" type="curve" smooth="yes"/>
      <point x="497" y="13"/>
      <point x="598" y="-76"/>
      <point x="1062" y="-134" type="curve"/>
      <point x="973" y="-362" type="line"/>
      <point x="412" y="-296"/>
      <point x="172" y="-103"/>
      <point x="172" y="177" type="curve" smooth="yes"/>
      <point x="172" y="395"/>
      <point x="376" y="582"/>
    </contour>
    <contour>
      <point x="1352" y="1065" type="line"/>
      <point x="-30" y="1065" type="line"/>
      <point x="-30" y="1293" type="line"/>
      <point x="1352" y="1293" type="line"/>
    </contour>
    <contour>
      <point x="810" y="1293" type="move" name="top"/>
    </contour>
  </outline>
</glyph>
<glyph name="haraudeva" format="1">
  <advance width="1313"/>
  <outline>
    <contour>
      <point x="971" y="384" type="line"/>
      <point x="823" y="16" type="line"/>
      <point x="574" y="86" type="line"/>
      <point x="716" y="458" type="line"/>
    </contour>
    <contour>
      <point x="1343" y="1065" type="line"/>
      <point x="-30" y="1065" type="line"/>
      <point x="-30" y="1293" type="line"/>
      <point x="1343" y="1293" type="line"/>
    </contour>
    <contour>
      <point x="800" y="1077" type="line"/>
      <point x="1148" y="1077" type="line"/>
      <point x="1148" y="707" type="line"/>
      <point x="521" y="707" type="line"/>
      <point x="425" y="707"/>
      <point x="384" y="667"/>
      <point x="384" y="616" type="curve" smooth="yes"/>
      <point x="384" y="563"/>
      <point x="430" y="531"/>
      <point x="526" y="509" type="curve"/>
      <point x="295" y="340" type="line"/>
      <point x="127" y="441"/>
      <point x="48" y="553"/>
      <point x="48" y="687" type="curve" smooth="yes"/>
      <point x="48" y="824"/>
      <point x="158" y="935"/>
      <point x="380" y="935" type="curve" smooth="yes"/>
      <point x="839" y="935" type="line"/>
      <point x="800" y="883" type="line"/>
    </contour>
    <contour>
      <point x="720" y="582" type="curve" smooth="yes"/>
      <point x="1064" y="582"/>
      <point x="1264" y="421"/>
      <point x="1264" y="227" type="curve" smooth="yes"/>
      <point x="1264" y="146"/>
      <point x="1251" y="94"/>
      <point x="1219" y="19" type="curve"/>
      <point x="950" y="67" type="line"/>
      <point x="972" y="112"/>
      <point x="985" y="160"/>
      <point x="985" y="210" type="curve" smooth="yes"/>
      <point x="985" y="297"/>
      <point x="929" y="353"/>
      <point x="757" y="353" type="curve" smooth="yes"/>
      <point x="562" y="353"/>
      <point x="488" y="241"/>
      <point x="488" y="140" type="curve" smooth="yes"/>
      <point x="488" y="13"/>
      <point x="598" y="-65"/>
      <point x="940" y="-118" type="curve"/>
      <point x="850" y="-343" type="line"/>
      <point x="412" y="-282"/>
      <point x="162" y="-103"/>
      <point x="162" y="177" type="curve" smooth="yes"/>
      <point x="162" y="395"/>
      <point x="366" y="582"/>
    </contour>
    <component base="uvowelsigndeva" xOffset="1229" yOffset="-137"/>
  </outline>
</glyph>
<glyph name="havadeva" format="1">
  <advance width="1610"/>
  <outline>
    <contour>
      <point x="821" y="588" type="curve" smooth="yes"/>
      <point x="1241" y="588"/>
      <point x="1494" y="388"/>
      <point x="1495" y="81" type="curve" smooth="yes"/>
      <point x="1495" y="-353" type="line"/>
      <point x="1192" y="-353" type="line"/>
      <point x="1192" y="92" type="line"/>
      <point x="1192" y="245"/>
      <point x="1112" y="334"/>
      <point x="844" y="334" type="curve" smooth="yes"/>
      <point x="530" y="334"/>
      <point x="424" y="183"/>
      <point x="424" y="40" type="curve" smooth="yes"/>
      <point x="424" y="-88"/>
      <point x="480" y="-189"/>
      <point x="740" y="-404" type="curve"/>
      <point x="543" y="-552" type="line"/>
      <point x="243" y="-321"/>
      <point x="135" y="-108"/>
      <point x="135" y="105" type="curve" smooth="yes"/>
      <point x="135" y="315"/>
      <point x="306" y="588"/>
    </contour>
    <contour>
      <point x="1640" y="1065" type="line"/>
      <point x="-30" y="1065" type="line"/>
      <point x="-30" y="1293" type="line"/>
      <point x="1640" y="1293" type="line"/>
    </contour>
    <contour>
      <point x="1105" y="1077" type="line"/>
      <point x="1453" y="1077" type="line"/>
      <point x="1453" y="707" type="line"/>
      <point x="521" y="707" type="line"/>
      <point x="424" y="707"/>
      <point x="384" y="668"/>
      <point x="384" y="616" type="curve" smooth="yes"/>
      <point x="384" y="563"/>
      <point x="430" y="531"/>
      <point x="526" y="509" type="curve"/>
      <point x="295" y="340" type="line"/>
      <point x="127" y="441"/>
      <point x="48" y="553"/>
      <point x="48" y="687" type="curve" smooth="yes"/>
      <point x="48" y="824"/>
      <point x="158" y="935"/>
      <point x="380" y="935" type="curve" smooth="yes"/>
      <point x="1144" y="935" type="line"/>
      <point x="1105" y="883" type="line"/>
    </contour>
    <contour>
      <point x="1212" y="-6" type="curve"/>
      <point x="1212" y="-244" type="line"/>
      <point x="1157" y="-267"/>
      <point x="1117" y="-281"/>
      <point x="1016" y="-281" type="curve" smooth="yes"/>
      <point x="781" y="-281"/>
      <point x="645" y="-136"/>
      <point x="645" y="10" type="curve" smooth="yes"/>
      <point x="645" y="131"/>
      <point x="745" y="232"/>
      <point x="952" y="232" type="curve" smooth="yes"/>
      <point x="1087" y="232"/>
      <point x="1190" y="204"/>
      <point x="1261" y="169" type="curve"/>
      <point x="1260" y="3" type="line"/>
      <point x="1179" y="45"/>
      <point x="1148" y="63"/>
      <point x="1038" y="63" type="curve" smooth="yes"/>
      <point x="951" y="63"/>
      <point x="898" y="21"/>
      <point x="898" y="-30" type="curve" smooth="yes"/>
      <point x="898" y="-78"/>
      <point x="945" y="-106"/>
      <point x="1008" y="-106" type="curve" smooth="yes"/>
      <point x="1096" y="-106"/>
      <point x="1150" y="-76"/>
    </contour>
    <contour>
      <point x="1192" y="-353" type="move" name="btm"/>
    </contour>
    <contour>
      <point x="1105" y="1293" type="move" name="top"/>
    </contour>
  </outline>
</glyph>
<glyph name="ivowelsign05deva" format="1">
  <advance width="676"/>
  <outline>
    <contour>
      <point x="139" y="1254" type="line"/>
      <point x="139" y="1339" type="line"/>
      <point x="139" y="1598"/>
      <point x="354" y="1823"/>
      <point x="924" y="1823" type="curve" smooth="yes"/>
      <point x="1311" y="1823"/>
      <point x="1735" y="1758"/>
      <point x="2099" y="1675" type="curve"/>
      <point x="2056" y="1431" type="line"/>
      <point x="1660" y="1499"/>
      <point x="1302" y="1542"/>
      <point x="991" y="1542" type="curve" smooth="yes"/>
      <point x="584" y="1542"/>
      <point x="488" y="1429"/>
      <point x="488" y="1312" type="curve" smooth="yes"/>
      <point x="488" y="1254" type="line"/>
    </contour>
    <component base="aavowelsigndeva"/>
  </outline>
</glyph>
<glyph name="ivowelsign08deva" format="1">
  <advance width="676"/>
  <outline>
    <contour>
      <point x="139" y="1254" type="line"/>
      <point x="139" y="1339" type="line"/>
      <point x="139" y="1599"/>
      <point x="332" y="1823"/>
      <point x="878" y="1823" type="curve" smooth="yes"/>
      <point x="1451" y="1823"/>
      <point x="2080" y="1785"/>
      <point x="2786" y="1686" type="curve"/>
      <point x="2746" y="1438" type="line"/>
      <point x="2041" y="1508"/>
      <point x="1469" y="1542"/>
      <point x="964" y="1542" type="curve" smooth="yes"/>
      <point x="581" y="1542"/>
      <point x="488" y="1429"/>
      <point x="488" y="1312" type="curve" smooth="yes"/>
      <point x="488" y="1254" type="line"/>
    </contour>
    <component base="aavowelsigndeva"/>
  </outline>
</glyph>
<glyph name="janyaradeva" format="1">
  <advance width="1628"/>
  <outline>
    <contour>
      <point x="1328" y="459" type="line"/>
      <point x="901" y="-22" type="line"/>
      <point x="674" y="154" type="line"/>
      <point x="1111" y="644" type="line"/>
    </contour>
    <contour>
      <point x="492" y="144" type="curve"/>
      <point x="510" y="121" type="line"/>
      <point x="762" y="-205" type="line"/>
      <point x="534" y="-310" type="line"/>
      <point x="251" y="51" type="line"/>
      <point x="375" y="-15" type="line"/>
      <point x="131" y="-15"/>
      <point x="46" y="63"/>
      <point x="46" y="151" type="curve" smooth="yes"/>
      <point x="46" y="240"/>
      <point x="132" y="318"/>
      <point x="239" y="318" type="curve" smooth="yes"/>
      <point x="327" y="318"/>
      <point x="395" y="271"/>
    </contour>
    <contour>
      <point x="-30" y="1065" type="line"/>
      <point x="-30" y="1293" type="line"/>
      <point x="1658" y="1293" type="line"/>
      <point x="1658" y="1065" type="line"/>
    </contour>
    <contour>
      <point x="512" y="731" type="line" smooth="yes"/>
      <point x="452" y="731"/>
      <point x="418" y="718"/>
      <point x="418" y="684" type="curve" smooth="yes"/>
      <point x="418" y="651"/>
      <point x="453" y="631"/>
      <point x="572" y="609" type="curve" smooth="yes"/>
      <point x="767" y="574"/>
      <point x="882" y="467"/>
      <point x="882" y="308" type="curve" smooth="yes"/>
      <point x="882" y="150"/>
      <point x="728" y="-13"/>
      <point x="423" y="-13" type="curve"/>
      <point x="390" y="206" type="line"/>
      <point x="509" y="206"/>
      <point x="576" y="257"/>
      <point x="576" y="305" type="curve" smooth="yes"/>
      <point x="576" y="357"/>
      <point x="546" y="381"/>
      <point x="370" y="432" type="curve" smooth="yes"/>
      <point x="186" y="484"/>
      <point x="97" y="593"/>
      <point x="97" y="707" type="curve" smooth="yes"/>
      <point x="97" y="853"/>
      <point x="203" y="950"/>
      <point x="402" y="950" type="curve" smooth="yes"/>
      <point x="1118" y="950" type="line"/>
      <point x="1118" y="731" type="line"/>
    </contour>
    <contour>
      <point x="1085" y="1105" type="line"/>
      <point x="1434" y="1105" type="line"/>
      <point x="1434" y="0" type="line"/>
      <point x="1085" y="0" type="line"/>
    </contour>
    <contour>
      <point x="1085" y="1293" type="move" name="top"/>
    </contour>
  </outline>
</glyph>
<glyph name="janyaraprehalfdeva" format="1">
  <advance width="1034"/>
  <outline>
    <contour>
      <point x="1328" y="493" type="line"/>
      <point x="873" y="-22" type="line"/>
      <point x="646" y="154" type="line"/>
      <point x="1112" y="679" type="line"/>
    </contour>
    <contour>
      <point x="481" y="144" type="curve"/>
      <point x="515" y="99" type="line"/>
      <point x="751" y="-205" type="line"/>
      <point x="523" y="-310" type="line"/>
      <point x="239" y="51" type="line"/>
      <point x="364" y="-15" type="line"/>
      <point x="119" y="-15"/>
      <point x="35" y="63"/>
      <point x="35" y="151" type="curve" smooth="yes"/>
      <point x="35" y="240"/>
      <point x="121" y="318"/>
      <point x="228" y="318" type="curve" smooth="yes"/>
      <point x="316" y="318"/>
      <point x="384" y="271"/>
    </contour>
    <contour>
      <point x="-30" y="1065" type="line"/>
      <point x="-30" y="1293" type="line"/>
      <point x="1064" y="1293" type="line"/>
      <point x="1064" y="1065" type="line"/>
    </contour>
    <contour>
      <point x="487" y="731" type="line" smooth="yes"/>
      <point x="422" y="731"/>
      <point x="411" y="718"/>
      <point x="411" y="684" type="curve" smooth="yes"/>
      <point x="411" y="651"/>
      <point x="444" y="633"/>
      <point x="561" y="609" type="curve" smooth="yes"/>
      <point x="727" y="576"/>
      <point x="842" y="461"/>
      <point x="842" y="308" type="curve" smooth="yes"/>
      <point x="842" y="150"/>
      <point x="670" y="-13"/>
      <point x="412" y="-13" type="curve"/>
      <point x="379" y="206" type="line"/>
      <point x="498" y="206"/>
      <point x="536" y="257"/>
      <point x="536" y="305" type="curve" smooth="yes"/>
      <point x="536" y="357"/>
      <point x="482" y="393"/>
      <point x="359" y="432" type="curve" smooth="yes"/>
      <point x="174" y="490"/>
      <point x="67" y="574"/>
      <point x="67" y="723" type="curve" smooth="yes"/>
      <point x="67" y="853"/>
      <point x="198" y="950"/>
      <point x="399" y="950" type="curve" smooth="yes"/>
      <point x="1137" y="950" type="line"/>
      <point x="1137" y="731" type="line"/>
    </contour>
  </outline>
</glyph>
<glyph name="jharaprehalfdeva" format="1">
  <advance width="1201"/>
  <outline>
    <contour>
      <point x="556" y="143" type="curve"/>
      <point x="600" y="97" type="line"/>
      <point x="868" y="-187" type="line"/>
      <point x="655" y="-320" type="line"/>
      <point x="309" y="59" type="line"/>
      <point x="443" y="-33" type="line"/>
      <point x="178" y="-33"/>
      <point x="80" y="83"/>
      <point x="80" y="167" type="curve" smooth="yes"/>
      <point x="80" y="244"/>
      <point x="147" y="316"/>
      <point x="249" y="316" type="curve" smooth="yes"/>
      <point x="346" y="316"/>
      <point x="436" y="270"/>
    </contour>
    <contour>
      <point x="1626" y="352" type="line"/>
      <point x="1063" y="-221" type="line"/>
      <point x="847" y="-28" type="line"/>
      <point x="1490" y="604" type="line"/>
    </contour>
    <contour>
      <point x="1561" y="456" type="line"/>
      <point x="1443" y="383"/>
      <point x="1290" y="318"/>
      <point x="1085" y="318" type="curve" smooth="yes"/>
      <point x="999" y="318"/>
      <point x="905" y="334"/>
      <point x="838" y="349" type="curve"/>
      <point x="830" y="602" type="line"/>
      <point x="894" y="586"/>
      <point x="951" y="578"/>
      <point x="1007" y="578" type="curve" smooth="yes"/>
      <point x="1151" y="578"/>
      <point x="1306" y="633"/>
      <point x="1428" y="749" type="curve"/>
    </contour>
    <contour>
      <point x="599" y="1086" type="line"/>
      <point x="947" y="1086" type="line"/>
      <point x="947" y="723" type="line"/>
      <point x="478" y="723" type="line"/>
      <point x="402" y="723"/>
      <point x="373" y="690"/>
      <point x="373" y="648" type="curve" smooth="yes"/>
      <point x="373" y="611"/>
      <point x="398" y="588"/>
      <point x="460" y="558" type="curve"/>
      <point x="347" y="575" type="line"/>
      <point x="442" y="614"/>
      <point x="553" y="638"/>
      <point x="665" y="638" type="curve" smooth="yes"/>
      <point x="887" y="638"/>
      <point x="1012" y="520"/>
      <point x="1012" y="341" type="curve" smooth="yes"/>
      <point x="1012" y="162"/>
      <point x="798" y="-21"/>
      <point x="508" y="-21" type="curve"/>
      <point x="457" y="218" type="line"/>
      <point x="590" y="218"/>
      <point x="686" y="276"/>
      <point x="686" y="328" type="curve" smooth="yes"/>
      <point x="686" y="367"/>
      <point x="653" y="388"/>
      <point x="603" y="388" type="curve" smooth="yes"/>
      <point x="542" y="388"/>
      <point x="481" y="368"/>
      <point x="412" y="336" type="curve"/>
      <point x="403" y="336" type="line"/>
      <point x="156" y="448"/>
      <point x="70" y="565"/>
      <point x="70" y="700" type="curve" smooth="yes"/>
      <point x="70" y="828"/>
      <point x="165" y="946"/>
      <point x="400" y="946" type="curve" smooth="yes"/>
      <point x="666" y="946" type="line"/>
      <point x="599" y="880" type="line"/>
    </contour>
    <contour>
      <point x="1231" y="1065" type="line"/>
      <point x="-30" y="1065" type="line"/>
      <point x="-30" y="1293" type="line"/>
      <point x="1231" y="1293" type="line"/>
    </contour>
  </outline>
</glyph>
<glyph name="lajadeva" format="1">
  <advance width="2985"/>
  <outline>
    <contour>
      <point x="1023" y="623" type="curve"/>
      <point x="811" y="454" type="line"/>
      <point x="733" y="566"/>
      <point x="653" y="615"/>
      <point x="570" y="615" type="curve" smooth="yes"/>
      <point x="449" y="615"/>
      <point x="384" y="536"/>
      <point x="384" y="437" type="curve" smooth="yes"/>
      <point x="384" y="325"/>
      <point x="451" y="231"/>
      <point x="555" y="116" type="curve"/>
      <point x="321" y="-14" type="line"/>
      <point x="192" y="116"/>
      <point x="70" y="322"/>
      <point x="70" y="508" type="curve" smooth="yes"/>
      <point x="70" y="737"/>
      <point x="232" y="905"/>
      <point x="493" y="905" type="curve" smooth="yes"/>
      <point x="710" y="905"/>
      <point x="891" y="805"/>
    </contour>
    <contour>
      <point x="-30" y="1065" type="line"/>
      <point x="-30" y="1293" type="line"/>
      <point x="1293" y="1293" type="line"/>
      <point x="1293" y="1065" type="line"/>
    </contour>
    <contour>
      <point x="881" y="237" type="curve"/>
      <point x="604" y="366" type="line"/>
      <point x="718" y="656"/>
      <point x="907" y="850"/>
      <point x="1119" y="850" type="curve" smooth="yes"/>
      <point x="1273" y="850"/>
      <point x="1382" y="766"/>
      <point x="1470" y="643" type="curve"/>
      <point x="1309" y="414" type="line"/>
      <point x="1250" y="499"/>
      <point x="1206" y="529"/>
      <point x="1150" y="529" type="curve" smooth="yes"/>
      <point x="1056" y="529"/>
      <point x="973" y="449"/>
    </contour>
    <component base="jadeva" xOffset="1299"/>
  </outline>
</glyph>
<glyph name="ngayadeva" format="1">
  <advance width="2950"/>
  <outline>
    <contour>
      <point x="-30" y="1065" type="line"/>
      <point x="-30" y="1293" type="line"/>
      <point x="2980" y="1293" type="line"/>
      <point x="2980" y="1065" type="line"/>
    </contour>
    <contour>
      <point x="954" y="722" type="line"/>
      <point x="939" y="946" type="line"/>
      <point x="1835" y="946" type="line"/>
      <point x="2098" y="946"/>
      <point x="2209" y="833"/>
      <point x="2212" y="678" type="curve" smooth="yes"/>
      <point x="2215" y="537"/>
      <point x="2077" y="434"/>
      <point x="1912" y="386" type="curve"/>
      <point x="1912" y="489" type="line"/>
      <point x="1976" y="403"/>
      <point x="2050" y="358"/>
      <point x="2135" y="358" type="curve" smooth="yes"/>
      <point x="2291" y="358"/>
      <point x="2402" y="438"/>
      <point x="2460" y="571" type="curve"/>
      <point x="2460" y="112" type="line"/>
      <point x="2403" y="91"/>
      <point x="2344" y="80"/>
      <point x="2251" y="80" type="curve" smooth="yes"/>
      <point x="1971" y="80"/>
      <point x="1719" y="266"/>
      <point x="1591" y="536" type="curve"/>
      <point x="1591" y="542" type="line"/>
      <point x="1819" y="579"/>
      <point x="1895" y="628"/>
      <point x="1895" y="669" type="curve" smooth="yes"/>
      <point x="1895" y="707"/>
      <point x="1868" y="722"/>
      <point x="1777" y="722" type="curve" smooth="yes"/>
    </contour>
    <contour>
      <point x="2413" y="1104" type="line"/>
      <point x="2762" y="1104" type="line"/>
      <point x="2762" y="-84" type="line"/>
      <point x="2413" y="-84" type="line"/>
    </contour>
    <contour>
      <point x="1363" y="643" type="curve" smooth="yes"/>
      <point x="1495" y="643"/>
      <point x="1538" y="562"/>
      <point x="1538" y="499" type="curve" smooth="yes"/>
      <point x="1538" y="435"/>
      <point x="1487" y="354"/>
      <point x="1363" y="354" type="curve" smooth="yes"/>
      <point x="1229" y="354"/>
      <point x="1184" y="436"/>
      <point x="1184" y="499" type="curve" smooth="yes"/>
      <point x="1184" y="561"/>
      <point x="1233" y="643"/>
    </contour>
    <contour>
      <point x="691" y="1086" type="line"/>
      <point x="1040" y="1086" type="line"/>
      <point x="1040" y="723" type="line"/>
      <point x="522" y="723" type="line"/>
      <point x="446" y="723"/>
      <point x="419" y="687"/>
      <point x="419" y="648" type="curve" smooth="yes"/>
      <point x="419" y="613"/>
      <point x="443" y="588"/>
      <point x="507" y="557" type="curve"/>
      <point x="395" y="574" type="line"/>
      <point x="484" y="612"/>
      <point x="602" y="634"/>
      <point x="759" y="634" type="curve" smooth="yes"/>
      <point x="997" y="634"/>
      <point x="1159" y="508"/>
      <point x="1159" y="322" type="curve" smooth="yes"/>
      <point x="1159" y="121"/>
      <point x="1016" y="-23"/>
      <point x="649" y="-23" type="curve" smooth="yes"/>
      <point x="449" y="-23"/>
      <point x="276" y="19"/>
      <point x="55" y="131" type="curve"/>
      <point x="115" y="378" type="line"/>
      <point x="310" y="267"/>
      <point x="486" y="218"/>
      <point x="623" y="218" type="curve" smooth="yes"/>
      <point x="779" y="218"/>
      <point x="835" y="273"/>
      <point x="835" y="323" type="curve" smooth="yes"/>
      <point x="835" y="365"/>
      <point x="794" y="387"/>
      <point x="706" y="387" type="curve" smooth="yes"/>
      <point x="618" y="387"/>
      <point x="528" y="366"/>
      <point x="460" y="335" type="curve"/>
      <point x="452" y="335" type="line"/>
      <point x="206" y="444"/>
      <point x="116" y="565"/>
      <point x="116" y="701" type="curve" smooth="yes"/>
      <point x="116" y="821"/>
      <point x="203" y="946"/>
      <point x="446" y="946" type="curve" smooth="yes"/>
      <point x="758" y="946" type="line"/>
      <point x="691" y="880" type="line"/>
    </contour>
    <contour>
      <point x="2413" y="1293" type="move" name="top"/>
    </contour>
  </outline>
</glyph>
<glyph name="paprehalfdeva" format="1">
  <advance width="705"/>
  <outline>
    <contour>
      <point x="735" y="1065" type="line"/>
      <point x="-30" y="1065" type="line"/>
      <point x="-30" y="1293" type="line"/>
      <point x="735" y="1293" type="line"/>
    </contour>
    <contour>
      <point x="461" y="1171" type="line"/>
      <point x="461" y="688" type="line"/>
      <point x="461" y="599"/>
      <point x="501" y="549"/>
      <point x="591" y="549" type="curve" smooth="yes"/>
      <point x="692" y="549"/>
      <point x="834" y="591"/>
      <point x="949" y="682" type="curve"/>
      <point x="1107" y="428" type="line"/>
      <point x="950" y="329"/>
      <point x="792" y="273"/>
      <point x="613" y="273" type="curve" smooth="yes"/>
      <point x="314" y="273"/>
      <point x="113" y="453"/>
      <point x="113" y="756" type="curve" smooth="yes"/>
      <point x="113" y="1171" type="line"/>
    </contour>
  </outline>
</glyph>
<glyph name="phaprehalfdeva" format="1">
  <advance width="1406"/>
  <outline>
    <contour>
      <point x="1032" y="292" type="curve"/>
      <point x="1023" y="763" type="line"/>
      <point x="1067" y="782"/>
      <point x="1142" y="804"/>
      <point x="1265" y="804" type="curve" smooth="yes"/>
      <point x="1443" y="804"/>
      <point x="1601" y="759"/>
      <point x="1754" y="638" type="curve"/>
      <point x="1679" y="410" type="line"/>
      <point x="1548" y="489"/>
      <point x="1454" y="521"/>
      <point x="1335" y="521" type="curve" smooth="yes"/>
      <point x="1217" y="521"/>
      <point x="1099" y="447"/>
    </contour>
    <contour>
      <point x="471" y="1171" type="line"/>
      <point x="471" y="708" type="line"/>
      <point x="471" y="618"/>
      <point x="512" y="571"/>
      <point x="586" y="571" type="curve" smooth="yes"/>
      <point x="660" y="571"/>
      <point x="729" y="606"/>
      <point x="793" y="678" type="curve"/>
      <point x="793" y="315" type="line"/>
      <point x="745" y="301"/>
      <point x="698" y="295"/>
      <point x="628" y="295" type="curve" smooth="yes"/>
      <point x="319" y="295"/>
      <point x="122" y="475"/>
      <point x="122" y="787" type="curve" smooth="yes"/>
      <point x="122" y="1171" type="line"/>
    </contour>
    <contour>
      <point x="-30" y="1065" type="line"/>
      <point x="-30" y="1293" type="line"/>
      <point x="1436" y="1293" type="line"/>
      <point x="1436" y="1065" type="line"/>
    </contour>
    <contour>
      <point x="763" y="1104" type="line"/>
      <point x="1111" y="1104" type="line"/>
      <point x="1111" y="0" type="line"/>
      <point x="763" y="0" type="line"/>
    </contour>
  </outline>
</glyph>
<glyph name="rahalantdeva" format="1">
  <advance width="1004"/>
  <outline>
    <component base="radeva"/>
    <component base="viramadeva" xOffset="759" yOffset="2"/>
    <contour>
      <point x="475" y="51" type="move" name="btm"/>
    </contour>
    <contour>
      <point x="526" y="1293" type="move" name="top"/>
    </contour>
  </outline>
</glyph>
<glyph name="raradeva" format="1">
  <advance width="1004"/>
  <outline>
    <component base="vattudeva" xOffset="924" yOffset="-3"/>
    <component base="radeva"/>
    <contour>
      <point x="402" y="-409" type="move" name="btm"/>
    </contour>
    <contour>
      <point x="526" y="1293" type="move" name="top"/>
    </contour>
  </outline>
</glyph>
<glyph name="shacaprehalfdeva" format="1">
  <advance width="1044"/>
  <outline>
    <contour>
      <point x="198" y="327" type="line"/>
      <point x="48" y="576" type="line"/>
      <point x="334" y="722" type="line"/>
      <point x="575" y="845"/>
      <point x="635" y="911"/>
      <point x="635" y="982" type="curve" smooth="yes"/>
      <point x="635" y="1037"/>
      <point x="601" y="1076"/>
      <point x="547" y="1076" type="curve" smooth="yes"/>
      <point x="480" y="1076"/>
      <point x="450" y="1036"/>
      <point x="450" y="986" type="curve" smooth="yes"/>
      <point x="450" y="881"/>
      <point x="628" y="789"/>
      <point x="1242" y="694" type="curve"/>
      <point x="1284" y="444" type="line"/>
      <point x="404" y="527"/>
      <point x="148" y="778"/>
      <point x="148" y="1027" type="curve" smooth="yes"/>
      <point x="148" y="1180"/>
      <point x="275" y="1325"/>
      <point x="522" y="1325" type="curve" smooth="yes"/>
      <point x="776" y="1325"/>
      <point x="917" y="1166"/>
      <point x="917" y="977" type="curve" smooth="yes"/>
      <point x="917" y="787"/>
      <point x="787" y="631"/>
      <point x="477" y="471" type="curve" smooth="yes"/>
    </contour>
    <contour>
      <point x="375" y="-44" type="line"/>
      <point x="241" y="160" type="line"/>
      <point x="805" y="463" type="line"/>
      <point x="935" y="267" type="line"/>
    </contour>
    <contour>
      <point x="1144" y="527" type="curve"/>
      <point x="1244" y="681" type="line"/>
      <point x="1405" y="498" type="line"/>
      <point x="1392" y="20"/>
      <point x="1161" y="-227"/>
      <point x="863" y="-227" type="curve" smooth="yes"/>
      <point x="669" y="-227"/>
      <point x="521" y="-93"/>
      <point x="521" y="89" type="curve" smooth="yes"/>
      <point x="521" y="214"/>
      <point x="597" y="331"/>
      <point x="781" y="418" type="curve"/>
      <point x="899" y="247" type="line"/>
      <point x="822" y="211"/>
      <point x="790" y="155"/>
      <point x="789" y="107" type="curve" smooth="yes"/>
      <point x="789" y="54"/>
      <point x="819" y="19"/>
      <point x="874" y="19" type="curve" smooth="yes"/>
      <point x="994" y="19"/>
      <point x="1124" y="163"/>
    </contour>
  </outline>
</glyph>
<glyph name="shaprehalfdeva" format="1">
  <advance width="1031"/>
  <outline>
    <contour>
      <point x="606" y="397" type="line"/>
      <point x="928" y="119" type="line"/>
      <point x="729" y="-63" type="line"/>
      <point x="350" y="273" type="line"/>
    </contour>
    <contour>
      <point x="267" y="196" type="curve" smooth="yes"/>
      <point x="127" y="196"/>
      <point x="74" y="282"/>
      <point x="74" y="387" type="curve" smooth="yes"/>
      <point x="74" y="507"/>
      <point x="157" y="623"/>
      <point x="273" y="623" type="curve" smooth="yes"/>
      <point x="357" y="623"/>
      <point x="421" y="579"/>
      <point x="504" y="501" type="curve"/>
      <point x="391" y="518" type="line"/>
      <point x="553" y="571"/>
      <point x="685" y="730"/>
      <point x="685" y="888" type="curve" smooth="yes"/>
      <point x="685" y="990"/>
      <point x="614" y="1075"/>
      <point x="515" y="1075" type="curve" smooth="yes"/>
      <point x="460" y="1075"/>
      <point x="425" y="1038"/>
      <point x="425" y="992" type="curve" smooth="yes"/>
      <point x="425" y="915"/>
      <point x="510" y="845"/>
      <point x="764" y="822" type="curve"/>
      <point x="684" y="620" type="line"/>
      <point x="272" y="674"/>
      <point x="130" y="840"/>
      <point x="130" y="1032" type="curve" smooth="yes"/>
      <point x="130" y="1182"/>
      <point x="246" y="1325"/>
      <point x="482" y="1325" type="curve" smooth="yes"/>
      <point x="772" y="1325"/>
      <point x="974" y="1133"/>
      <point x="974" y="843" type="curve" smooth="yes"/>
      <point x="974" y="486"/>
      <point x="538" y="196"/>
    </contour>
  </outline>
</glyph>
<glyph name="ssattadeva" format="1">
  <advance width="1307"/>
  <outline>
    <contour>
      <point x="920" y="604" type="line"/>
      <point x="796" y="511" type="line"/>
      <point x="408" y="1056" type="line"/>
      <point x="533" y="1148" type="line"/>
    </contour>
    <contour>
      <point x="1337" y="1065" type="line"/>
      <point x="-30" y="1065" type="line"/>
      <point x="-30" y="1293" type="line"/>
      <point x="1337" y="1293" type="line"/>
    </contour>
    <contour>
      <point x="844" y="774" type="curve" smooth="yes"/>
      <point x="844" y="1104" type="line"/>
      <point x="1183" y="1104" type="line"/>
      <point x="1183" y="757" type="line"/>
      <point x="1183" y="513"/>
      <point x="1030" y="330"/>
      <point x="682" y="330" type="curve" smooth="yes"/>
      <point x="354" y="330"/>
      <point x="124" y="501"/>
      <point x="124" y="811" type="curve" smooth="yes"/>
      <point x="124" y="1171" type="line"/>
      <point x="463" y="1171" type="line"/>
      <point x="463" y="732" type="line"/>
      <point x="463" y="644"/>
      <point x="560" y="597"/>
      <point x="634" y="597" type="curve" smooth="yes"/>
      <point x="765" y="597"/>
      <point x="844" y="665"/>
    </contour>
    <contour>
      <point x="700" y="331" type="line" smooth="yes"/>
      <point x="533" y="331"/>
      <point x="472" y="252"/>
      <point x="472" y="175" type="curve" smooth="yes"/>
      <point x="472" y="104"/>
      <point x="544" y="43"/>
      <point x="678" y="43" type="curve" smooth="yes"/>
      <point x="819" y="43"/>
      <point x="902" y="65"/>
      <point x="1050" y="121" type="curve"/>
      <point x="1118" y="-143" type="line"/>
      <point x="969" y="-194"/>
      <point x="872" y="-217"/>
      <point x="694" y="-217" type="curve" smooth="yes"/>
      <point x="300" y="-217"/>
      <point x="124" y="-31"/>
      <point x="124" y="208" type="curve" smooth="yes"/>
      <point x="124" y="424"/>
      <point x="298" y="583"/>
      <point x="619" y="583" type="curve" smooth="yes"/>
    </contour>
    <contour>
      <point x="503" y="-216" type="move" name="btm"/>
    </contour>
    <contour>
      <point x="844" y="1293" type="move" name="top"/>
    </contour>
  </outline>
</glyph>
<glyph name="ssattaradeva" format="1">
  <advance width="1307"/>
  <outline>
    <component base="ssattadeva"/>
    <component base="vattudeva" xOffset="1042" yOffset="-215"/>
    <contour>
      <point x="526" y="-623" type="move" name="btm"/>
    </contour>
    <contour>
      <point x="844" y="1293" type="move" name="top"/>
    </contour>
  </outline>
</glyph>
<glyph name="tayadeva" format="1">
  <advance width="2130"/>
  <outline>
    <contour>
      <point x="-30" y="1065" type="line"/>
      <point x="-30" y="1293" type="line"/>
      <point x="823" y="1293" type="line"/>
      <point x="823" y="1065" type="line"/>
    </contour>
    <contour>
      <point x="1069" y="763" type="curve"/>
      <point x="935" y="475" type="line"/>
      <point x="805" y="574"/>
      <point x="716" y="611"/>
      <point x="612" y="611" type="curve" smooth="yes"/>
      <point x="465" y="611"/>
      <point x="409" y="515"/>
      <point x="409" y="415" type="curve" smooth="yes"/>
      <point x="409" y="319"/>
      <point x="458" y="209"/>
      <point x="548" y="49" type="curve"/>
      <point x="271" y="-33" type="line"/>
      <point x="152" y="159"/>
      <point x="84" y="345"/>
      <point x="86" y="503" type="curve" smooth="yes"/>
      <point x="88" y="720"/>
      <point x="220" y="901"/>
      <point x="529" y="901" type="curve" smooth="yes"/>
      <point x="719" y="901"/>
      <point x="909" y="840"/>
    </contour>
    <component base="yadeva" xOffset="708"/>
  </outline>
</glyph>
<glyph name="ttattadeva" format="1">
  <advance width="1221"/>
  <outline>
    <contour>
      <point x="572" y="204" type="line"/>
      <point x="920" y="204" type="line"/>
      <point x="920" y="-188" type="line"/>
      <point x="627" y="-188" type="line"/>
      <point x="477" y="-188"/>
      <point x="407" y="-257"/>
      <point x="407" y="-324" type="curve" smooth="yes"/>
      <point x="407" y="-395"/>
      <point x="461" y="-454"/>
      <point x="615" y="-454" type="curve" smooth="yes"/>
      <point x="718" y="-454"/>
      <point x="844" y="-433"/>
      <point x="992" y="-387" type="curve"/>
      <point x="1056" y="-647" type="line"/>
      <point x="926" y="-689"/>
      <point x="809" y="-713"/>
      <point x="650" y="-713" type="curve" smooth="yes"/>
      <point x="256" y="-713"/>
      <point x="58" y="-510"/>
      <point x="58" y="-290" type="curve" smooth="yes"/>
      <point x="58" y="-93"/>
      <point x="214" y="56"/>
      <point x="521" y="56" type="curve" smooth="yes"/>
      <point x="611" y="56" type="line"/>
      <point x="572" y="13" type="line"/>
    </contour>
    <contour>
      <point x="621" y="1102" type="line"/>
      <point x="970" y="1102" type="line"/>
      <point x="970" y="698" type="line"/>
      <point x="656" y="698" type="line"/>
      <point x="461" y="698"/>
      <point x="407" y="600"/>
      <point x="407" y="533" type="curve" smooth="yes"/>
      <point x="407" y="461"/>
      <point x="488" y="391"/>
      <point x="662" y="391" type="curve" smooth="yes"/>
      <point x="765" y="391"/>
      <point x="882" y="412"/>
      <point x="1031" y="457" type="curve"/>
      <point x="1095" y="197" type="line"/>
      <point x="965" y="156"/>
      <point x="856" y="132"/>
      <point x="697" y="132" type="curve" smooth="yes"/>
      <point x="273" y="132"/>
      <point x="58" y="326"/>
      <point x="58" y="575" type="curve" smooth="yes"/>
      <point x="58" y="792"/>
      <point x="232" y="951"/>
      <point x="557" y="951" type="curve" smooth="yes"/>
      <point x="661" y="951" type="line"/>
      <point x="621" y="909" type="line"/>
    </contour>
    <contour>
      <point x="1251" y="1065" type="line"/>
      <point x="-30" y="1065" type="line"/>
      <point x="-30" y="1293" type="line"/>
      <point x="1251" y="1293" type="line"/>
    </contour>
    <contour>
      <point x="466" y="-713" type="move" name="btm"/>
    </contour>
    <contour>
      <point x="621" y="1293" type="move" name="top"/>
    </contour>
  </outline>
</glyph>
<glyph name="ttayadeva" format="1">
  <advance width="2486"/>
  <outline>
    <contour>
      <point x="1010" y="1065" type="line"/>
      <point x="1010" y="1293" type="line"/>
      <point x="2516" y="1293" type="line"/>
      <point x="2516" y="1065" type="line"/>
    </contour>
    <contour>
      <point x="1950" y="1104" type="line"/>
      <point x="2298" y="1104" type="line"/>
      <point x="2298" y="-84" type="line"/>
      <point x="1950" y="-84" type="line"/>
    </contour>
    <contour>
      <point x="794" y="654" type="line"/>
      <point x="779" y="908" type="line"/>
      <point x="1364" y="908" type="line"/>
      <point x="1617" y="908"/>
      <point x="1736" y="782"/>
      <point x="1736" y="629" type="curve" smooth="yes"/>
      <point x="1736" y="471"/>
      <point x="1611" y="369"/>
      <point x="1446" y="321" type="curve"/>
      <point x="1446" y="424" type="line"/>
      <point x="1510" y="338"/>
      <point x="1585" y="292"/>
      <point x="1671" y="292" type="curve" smooth="yes"/>
      <point x="1827" y="292"/>
      <point x="1939" y="373"/>
      <point x="1996" y="506" type="curve"/>
      <point x="1996" y="47" type="line"/>
      <point x="1939" y="26"/>
      <point x="1880" y="15"/>
      <point x="1787" y="15" type="curve" smooth="yes"/>
      <point x="1506" y="15"/>
      <point x="1253" y="201"/>
      <point x="1125" y="471" type="curve"/>
      <point x="1125" y="477" type="line"/>
      <point x="1352" y="514"/>
      <point x="1428" y="562"/>
      <point x="1428" y="603" type="curve" smooth="yes"/>
      <point x="1428" y="637"/>
      <point x="1402" y="654"/>
      <point x="1311" y="654" type="curve" smooth="yes"/>
    </contour>
    <component base="ttadeva"/>
    <contour>
      <point x="1950" y="1293" type="move" name="top"/>
    </contour>
  </outline>
</glyph>
